<svg xmlns="http://www.w3.org/2000/svg" xmlns:xlink="http://www.w3.org/1999/xlink" width="940" zoomAndPan="magnify" viewBox="0 0 705 591.000005" height="788" preserveAspectRatio="xMidYMid meet" version="1.0"><defs><g/></defs><path fill="#f1feff" d="M 601.371094 481.351562 L 314.15625 481.351562 C 310.433594 481.351562 307.75 477.792969 308.765625 474.207031 L 365.257812 275.269531 C 366.371094 271.359375 369.941406 268.660156 374.007812 268.660156 L 660.617188 268.660156 C 664.914062 268.660156 668.027344 272.777344 666.851562 276.910156 L 610.828125 474.203125 C 609.625 478.425781 605.765625 481.34375 601.378906 481.34375 Z M 601.371094 481.351562 " fill-opacity="1" fill-rule="nonzero"/><path fill="#f1feff" d="M 568.234375 564.367188 L 489.019531 564.367188 L 452.605469 402.140625 L 531.816406 402.140625 Z M 568.234375 564.367188 " fill-opacity="1" fill-rule="nonzero"/><path fill="#000000" d="M 274.96875 79.886719 C 294.730469 74.566406 322.238281 75.558594 331.585938 96.863281 C 336.152344 107.957031 333.644531 122.941406 343.339844 130.011719 C 347.28125 132.882812 352.371094 133.574219 356.8125 135.585938 C 369.765625 141.445312 375.097656 158.457031 370.699219 171.980469 C 366.304688 185.503906 354.265625 195.429688 341.109375 200.8125 C 331.6875 204.550781 327.507812 207.136719 329.277344 217.640625 C 329.867188 227.480469 323.195312 237.300781 313.828125 240.378906 C 303.445312 243.792969 292.335938 239.355469 281.535156 237.699219 C 255.953125 233.808594 243.078125 255.902344 266.488281 270.679688 C 273.792969 275.023438 282.300781 277.273438 289.046875 282.445312 C 302.476562 292.742188 305.046875 314.527344 294.375 327.660156 C 290.84375 332.007812 285.796875 336.523438 286.917969 342.011719 C 287.375 344.265625 288.851562 346.148438 290.097656 348.078125 C 296.992188 358.804688 297.066406 373.53125 290.28125 384.328125 C 283.496094 395.125 270.203125 401.449219 257.546875 399.890625 C 244.046875 398.226562 232.992188 388.777344 220.699219 382.953125 C 204.660156 375.351562 185.757812 373.984375 168.789062 379.203125 C 152.390625 384.25 138.144531 395.039062 121.566406 399.46875 C 104.988281 403.902344 83.3125 398.679688 78.457031 382.21875 C 77.796875 379.984375 77.460938 377.582031 76.128906 375.667969 C 72.429688 370.351562 64.1875 372.039062 58.195312 369.585938 C 51.636719 366.910156 48.351562 359.15625 48.691406 352.082031 C 49.035156 345.007812 52.234375 338.425781 55.363281 332.074219 C 42.75 330.042969 35.167969 315.21875 37.59375 302.664062 C 38.773438 296.53125 41.742188 291.015625 45.738281 286.214844 C 51.328125 279.5 51.15625 269.65625 45.324219 263.148438 C 32.484375 249.515625 32.855469 226.628906 45.566406 213.039062 C 54.691406 203.078125 68.328125 198.847656 79.707031 191.570312 C 82.015625 190.089844 84.308594 188.410156 85.667969 186.03125 C 89.445312 179.4375 84.664062 171.519531 82.160156 164.351562 C 76.542969 148.246094 84.464844 128.589844 99.683594 120.882812 C 108.101562 116.617188 121.519531 117.035156 124.601562 108.113281 C 161.804688 0.203125 271.84375 38.433594 274.976562 79.867188 Z M 274.96875 79.886719 " fill-opacity="1" fill-rule="nonzero"/><path fill="#562629" d="M 279.597656 569.476562 L 295.769531 548.980469 L 351.808594 571.460938 Z M 279.597656 569.476562 " fill-opacity="1" fill-rule="nonzero"/><path fill="#d68c8d" d="M 327.367188 538.691406 C 348.730469 531.171875 357.574219 525.675781 371.636719 517.277344 C 373.972656 515.882812 376.808594 518.011719 376.148438 520.648438 C 373.972656 529.449219 362.273438 539.96875 339.976562 546.324219 C 337.132812 547.132812 327.367188 538.691406 327.367188 538.691406 Z M 327.367188 538.691406 " fill-opacity="1" fill-rule="nonzero"/><path fill="#d68c8d" d="M 352.933594 562.230469 C 358.957031 564.335938 365.527344 565.183594 371.660156 563.453125 C 373.863281 562.832031 376.371094 561.289062 376.246094 558.882812 C 376.128906 556.609375 373.789062 555.347656 371.808594 554.46875 C 361.386719 549.847656 351.855469 543.246094 342.675781 536.253906 C 339.613281 533.542969 336.527344 532.964844 332.65625 534.261719 C 328.5 535.367188 324.386719 536.632812 320.324219 538.046875 C 320.324219 538.046875 346.910156 560.121094 352.933594 562.230469 Z M 352.933594 562.230469 " fill-opacity="1" fill-rule="nonzero"/><path fill="#d68c8d" d="M 336.796875 562.230469 C 342.820312 564.335938 349.390625 565.183594 355.523438 563.453125 C 357.726562 562.832031 360.234375 561.289062 360.109375 558.882812 C 359.992188 556.609375 357.652344 555.347656 355.671875 554.46875 C 345.25 549.847656 335.71875 543.246094 326.539062 536.253906 C 323.476562 533.542969 320.390625 532.964844 316.519531 534.261719 C 312.363281 535.367188 308.25 536.632812 304.1875 538.046875 C 304.1875 538.046875 330.773438 560.121094 336.796875 562.230469 Z M 336.796875 562.230469 " fill-opacity="1" fill-rule="nonzero"/><path fill="#5eead4" d="M 135.746094 293.234375 C 96.90625 311.066406 68.226562 343.269531 52.789062 379.140625 C 28.839844 426.542969 13.785156 478.664062 13.375 532.011719 C 13.25 539.820312 13.867188 548.6875 19.890625 553.65625 C 20.535156 554.195312 21.3125 554.6875 22.144531 554.613281 C 41.109375 540.003906 57 520.5 78.464844 509.304688 C 84.382812 506.078125 91.070312 502.953125 93.90625 496.832031 C 95.589844 493.207031 95.753906 489.0625 95.734375 485.058594 C 95.128906 384.472656 142.035156 341.132812 135.738281 293.230469 Z M 135.746094 293.234375 " fill-opacity="1" fill-rule="nonzero"/><path fill="#f1feff" d="M 74.839844 487.9375 C 82.96875 485.203125 91.441406 483.597656 99.996094 483.808594 C 100.773438 483.832031 101.542969 484.03125 102.210938 484.429688 C 109.417969 488.726562 99.359375 494.023438 107.007812 497.882812 C 108.21875 498.492188 109.242188 499.449219 109.953125 500.601562 C 111.910156 503.777344 109.886719 505.257812 108.753906 507.140625 C 107.449219 509.3125 117.84375 514.929688 105.636719 519.542969 C 75.839844 529.757812 60.136719 547.835938 48.332031 576.34375 C 45.839844 582.179688 39.703125 586.570312 33.261719 586.039062 C 25.0625 584.550781 24.8125 576.679688 21.410156 576.914062 C 19.679688 577.03125 17.996094 578.171875 16.300781 577.828125 C 0.589844 574.675781 6.054688 553.289062 6.054688 553.289062 C 16.917969 522.1875 44.589844 498.609375 74.839844 487.945312 Z M 74.839844 487.9375 " fill-opacity="1" fill-rule="nonzero"/><path fill="#5eead4" d="M 288.285156 528.410156 C 287.089844 524.75 281.148438 523.863281 280.855469 520.019531 C 280.730469 518.371094 281.78125 516.898438 282.460938 515.394531 C 283.140625 513.890625 283.414062 511.632812 281.945312 510.878906 C 279.171875 509.457031 276.445312 508.925781 272.105469 509.457031 C 271.035156 466.613281 272.722656 422.511719 260.191406 381.175781 C 248.664062 343.9375 221.125 301.449219 189.183594 278.433594 C 183.503906 279.480469 136.433594 288.179688 122.691406 301.039062 C 114.492188 307.609375 109.164062 316.964844 104.386719 326.242188 C 76.726562 379.972656 60.988281 439.59375 58.585938 499.757812 C 56.4375 524.566406 65.066406 542.691406 87.347656 554.949219 C 99.351562 561.550781 112.894531 564.902344 126.351562 567.691406 C 148.441406 572.257812 170.984375 575.5 193.542969 574.480469 C 216.09375 573.464844 267.972656 558.398438 287.027344 533.371094 C 288.105469 531.949219 288.847656 530.101562 288.296875 528.40625 Z M 288.285156 528.410156 " fill-opacity="1" fill-rule="nonzero"/><path fill="#f1feff" d="M 280.855469 520.019531 C 280.730469 518.371094 281.78125 516.898438 282.460938 515.394531 C 283.140625 513.890625 283.414062 511.632812 281.945312 510.878906 C 279.171875 509.457031 276.445312 508.925781 272.105469 509.457031 C 272.105469 509.351562 272.105469 509.25 272.105469 509.144531 C 248.765625 513.90625 236.878906 530.554688 236.878906 530.554688 L 237.3125 564.523438 C 256.929688 557.464844 276.746094 546.867188 287.011719 533.371094 C 288.089844 531.949219 288.832031 530.101562 288.285156 528.40625 C 287.089844 524.742188 281.148438 523.859375 280.855469 520.011719 Z M 280.855469 520.019531 " fill-opacity="1" fill-rule="nonzero"/><path fill="#d68c8d" d="M 94.15625 519.433594 C 109.96875 515.925781 126.324219 523.09375 142.261719 525.988281 C 176.34375 532.167969 210.414062 538.347656 244.496094 544.53125 C 248.394531 545.238281 252.355469 545.945312 256.296875 545.546875 C 259.808594 545.191406 263.164062 543.960938 266.503906 542.8125 C 276.199219 539.476562 286.09375 536.699219 296.117188 534.515625 C 301.898438 532.902344 306.082031 534 310.957031 537.386719 C 319.472656 542.738281 334.722656 552.546875 342.394531 557.492188 C 344.769531 559.023438 344.273438 562.605469 341.582031 563.464844 C 328.007812 568.230469 314.960938 555.445312 301.308594 553.960938 C 290.15625 552.847656 301.914062 584.269531 238.183594 584.269531 L 34.003906 584.269531 C 34.003906 584.269531 58.0625 527.441406 94.160156 519.425781 Z M 94.15625 519.433594 " fill-opacity="1" fill-rule="nonzero"/><path fill="#f1feff" d="M 74.839844 487.9375 C 82.96875 485.203125 91.441406 483.597656 99.996094 483.808594 C 100.773438 483.832031 101.542969 484.03125 102.210938 484.429688 C 109.417969 488.726562 99.359375 494.023438 107.007812 497.882812 C 108.21875 498.492188 109.242188 499.449219 109.953125 500.601562 C 111.910156 503.777344 109.886719 505.257812 108.753906 507.140625 C 107.449219 509.3125 117.84375 514.929688 105.636719 519.542969 C 75.839844 529.757812 60.136719 547.835938 48.332031 576.34375 C 45.839844 582.179688 39.703125 586.570312 33.261719 586.039062 C 25.0625 584.550781 24.8125 576.679688 21.410156 576.914062 C 19.679688 577.03125 17.996094 578.171875 16.300781 577.828125 C 0.589844 574.675781 6.054688 553.289062 6.054688 553.289062 C 16.917969 522.1875 44.589844 498.609375 74.839844 487.945312 Z M 74.839844 487.9375 " fill-opacity="1" fill-rule="nonzero"/><path fill="#d68c8d" d="M 220.707031 270.027344 C 214.375 285.496094 211.265625 316.449219 210.105469 330.957031 C 209.722656 335.8125 205.429688 339.402344 200.582031 338.921875 C 186.230469 337.914062 167.097656 327.082031 164.8125 310.152344 C 163.550781 302.09375 165.972656 293.976562 168.199219 286.128906 C 173.59375 267.082031 177.949219 247.75 181.246094 228.230469 L 220.699219 270.027344 Z M 220.707031 270.027344 " fill-opacity="1" fill-rule="nonzero"/><path fill="#d68c8d" d="M 186.894531 205.613281 C 185.089844 200.8125 183.207031 195.902344 179.824219 192.050781 C 172.722656 183.957031 161.867188 184.734375 157.226562 194.75 C 155.460938 198.476562 154.898438 202.660156 154.519531 206.765625 C 154.03125 212.109375 153.832031 217.578125 155.199219 222.769531 C 156.566406 227.960938 159.695312 232.894531 164.46875 235.359375 C 169.234375 237.824219 175.710938 237.242188 179.261719 233.214844 C 185.078125 259.582031 204.714844 283.125 230.527344 291.023438 C 252.425781 298.792969 269.625 285.199219 281.363281 267.015625 C 300.421875 238.347656 310.292969 203.65625 309.164062 169.242188 C 294.949219 169.269531 265.644531 157.28125 270.820312 123.328125 C 260.148438 123.3125 231.703125 121.691406 223.902344 154.632812 C 222.054688 162.425781 223.652344 170.65625 222.480469 178.574219 C 217.273438 213.585938 186.894531 205.601562 186.894531 205.601562 Z M 186.894531 205.613281 " fill-opacity="1" fill-rule="nonzero"/><path fill="#562629" d="M 265.285156 564.367188 L 458.488281 564.367188 C 461.226562 564.367188 463.453125 566.582031 463.460938 569.324219 L 463.480469 579.296875 C 463.480469 582.042969 461.261719 584.277344 458.507812 584.277344 L 251.101562 584.277344 Z M 265.285156 564.367188 " fill-opacity="1" fill-rule="nonzero"/><path fill="#562629" d="M 489.019531 564.367188 L 499.957031 564.367188 L 463.542969 402.140625 L 452.605469 402.140625 Z M 489.019531 564.367188 " fill-opacity="1" fill-rule="nonzero"/><path fill="#562629" d="M 430.171875 564.839844 L 617.851562 564.839844 C 618.15625 564.839844 618.457031 564.867188 618.753906 564.929688 C 619.050781 564.988281 619.339844 565.074219 619.621094 565.191406 C 619.902344 565.308594 620.167969 565.449219 620.421875 565.621094 C 620.675781 565.789062 620.910156 565.980469 621.125 566.195312 C 621.339844 566.410156 621.53125 566.644531 621.699219 566.894531 C 621.867188 567.148438 622.011719 567.414062 622.128906 567.695312 C 622.242188 567.976562 622.332031 568.265625 622.390625 568.566406 C 622.449219 568.863281 622.480469 569.164062 622.480469 569.46875 L 622.480469 579.648438 C 622.480469 579.949219 622.449219 580.25 622.390625 580.550781 C 622.332031 580.847656 622.242188 581.136719 622.128906 581.417969 C 622.011719 581.699219 621.867188 581.964844 621.699219 582.21875 C 621.53125 582.472656 621.339844 582.703125 621.125 582.917969 C 620.910156 583.136719 620.675781 583.328125 620.421875 583.496094 C 620.167969 583.664062 619.902344 583.808594 619.621094 583.921875 C 619.339844 584.039062 619.050781 584.128906 618.753906 584.1875 C 618.457031 584.246094 618.15625 584.277344 617.851562 584.277344 L 430.171875 584.277344 C 429.867188 584.277344 429.566406 584.246094 429.265625 584.1875 C 428.96875 584.128906 428.679688 584.039062 428.398438 583.921875 C 428.117188 583.808594 427.851562 583.664062 427.597656 583.496094 C 427.347656 583.328125 427.113281 583.136719 426.898438 582.917969 C 426.683594 582.703125 426.492188 582.472656 426.320312 582.21875 C 426.152344 581.964844 426.011719 581.699219 425.894531 581.417969 C 425.777344 581.136719 425.691406 580.847656 425.632812 580.550781 C 425.570312 580.25 425.542969 579.949219 425.542969 579.648438 L 425.542969 569.46875 C 425.542969 569.164062 425.570312 568.863281 425.632812 568.566406 C 425.691406 568.265625 425.777344 567.976562 425.894531 567.695312 C 426.011719 567.414062 426.152344 567.148438 426.320312 566.894531 C 426.492188 566.644531 426.683594 566.410156 426.898438 566.195312 C 427.113281 565.980469 427.347656 565.789062 427.597656 565.621094 C 427.851562 565.449219 428.117188 565.308594 428.398438 565.191406 C 428.679688 565.074219 428.96875 564.988281 429.265625 564.929688 C 429.566406 564.867188 429.867188 564.839844 430.171875 564.839844 Z M 430.171875 564.839844 " fill-opacity="1" fill-rule="nonzero"/><path fill="#562629" d="M 470.945312 564.839844 L 430.171875 564.839844 C 427.617188 564.839844 425.542969 566.914062 425.542969 569.46875 L 425.542969 579.648438 C 425.542969 582.203125 427.617188 584.277344 430.171875 584.277344 L 470.945312 584.277344 Z M 470.945312 564.839844 " fill-opacity="1" fill-rule="nonzero"/><path fill="#562629" d="M 324.953125 474.214844 L 381.445312 275.277344 C 382.554688 271.367188 386.128906 268.667969 390.191406 268.667969 L 374 268.667969 C 369.933594 268.667969 366.363281 271.367188 365.253906 275.277344 L 308.761719 474.214844 C 307.742188 477.792969 310.429688 481.359375 314.148438 481.359375 L 330.34375 481.359375 C 326.621094 481.359375 323.933594 477.800781 324.953125 474.214844 Z M 324.953125 474.214844 " fill-opacity="1" fill-rule="nonzero"/><path fill="#562629" d="M 178.621094 203.882812 C 177.640625 200.539062 176.09375 196.679688 172.964844 194.769531 C 169.105469 192.414062 163.835938 195.015625 162.730469 199.273438 C 162.621094 199.707031 162.554688 200.167969 162.5625 200.621094 C 162.582031 202.25 165.019531 202.242188 165.082031 200.621094 C 165.371094 198.574219 167.230469 196.90625 169.207031 196.507812 C 169.8125 196.457031 170.484375 196.5625 171.054688 196.753906 C 175.730469 199.527344 176.597656 206.445312 177.460938 211.367188 C 175.339844 208.839844 171.570312 209.960938 169.90625 212.378906 C 168.082031 215.007812 168.148438 218.902344 168.714844 221.917969 C 169.742188 229.570312 177.761719 231.28125 180.367188 223.554688 C 181.835938 217.078125 180.0625 210.234375 178.636719 203.890625 Z M 167.039062 197.476562 C 167.105469 197.421875 167.121094 197.414062 167.039062 197.476562 Z M 167.039062 197.476562 " fill-opacity="1" fill-rule="nonzero"/><path fill="#562629" d="M 253.875 156.816406 C 245.097656 155.230469 235.417969 158.539062 229.847656 165.59375 C 228.960938 166.773438 230.863281 168.160156 231.859375 167.144531 C 238.628906 159.363281 250.433594 156.664062 259.664062 161.570312 C 262.300781 162.839844 264.539062 164.734375 266.5625 166.828125 C 267.585938 167.8125 269.566406 166.464844 268.625 165.234375 C 265.175781 160.75 259.359375 157.792969 253.875 156.808594 Z M 253.875 156.816406 " fill-opacity="1" fill-rule="nonzero"/><path fill="#562629" d="M 660.527344 267.328125 C 564.632812 267.5 468.464844 266.953125 372.578125 267.550781 C 363.816406 268.496094 363.183594 278.585938 361.027344 285.296875 C 350.351562 322.898438 339.671875 360.5 328.996094 398.105469 C 322.316406 421.59375 315.460938 445.78125 308.773438 469.320312 C 307.144531 473.832031 305.839844 480.085938 311.71875 482.160156 C 314.679688 483.191406 318.542969 482.675781 321.367188 482.675781 C 370.691406 482.675781 420.015625 482.675781 469.339844 482.675781 C 475.378906 509.621094 481.464844 536.558594 487.488281 563.5 L 460.796875 563.5 C 458.53125 562.640625 455.480469 563.03125 453.160156 563.03125 C 447.898438 563.03125 442.632812 563.03125 437.375 563.03125 C 416.816406 563.03125 396.023438 563.03125 375.441406 563.03125 C 379.035156 560.394531 377.707031 555.800781 374.007812 554.042969 C 371.691406 552.75 369.179688 551.789062 366.832031 550.554688 C 362.367188 548.21875 358.082031 545.566406 353.929688 542.722656 C 362.472656 538.761719 371.261719 533.480469 375.917969 524.992188 C 376.710938 523.464844 377.6875 521.472656 377.605469 519.710938 C 377.480469 517.132812 375.105469 515.164062 372.550781 515.546875 C 369.792969 516.289062 367.53125 518.398438 364.992188 519.683594 C 356.785156 524.625 348.285156 529.070312 339.425781 532.730469 C 335.167969 531.246094 330.679688 533.570312 326.550781 534.59375 C 321.59375 530.191406 314.996094 533.320312 309.46875 534.875 C 302.59375 530.328125 294.53125 533.589844 287.246094 535.230469 C 291.515625 530.363281 290.015625 526.132812 284.773438 523.089844 C 283.929688 522.496094 282.96875 521.851562 282.453125 520.933594 C 281.65625 519.503906 282.589844 518.019531 283.234375 516.730469 C 287.238281 509.179688 279.101562 507.726562 273.375 508.046875 C 272.605469 472.339844 273.292969 436.269531 266.503906 401.058594 C 278.113281 399.292969 288.878906 391.800781 293.640625 380.898438 C 305.953125 375.925781 317.097656 363.289062 309.652344 349.800781 C 307.160156 345.179688 303.890625 340.933594 304.261719 335.398438 C 304.632812 329.953125 307.59375 324.980469 309.554688 320 C 313.582031 309.789062 313.628906 297.300781 305.929688 288.746094 C 298.609375 280.585938 287 279.429688 277.640625 274.597656 C 282.6875 268.195312 286.902344 261.140625 290.652344 254.066406 C 296.050781 257.839844 303.273438 258.519531 309.695312 257.390625 C 326.25 255.53125 333.492188 239.410156 329.984375 224.335938 C 330.398438 222.6875 330.636719 220.984375 330.671875 219.289062 C 330.625 215.097656 329.003906 209.835938 332.792969 206.789062 C 338.355469 202.332031 345.621094 201.082031 351.457031 197.035156 C 359.039062 192.289062 365.773438 185.792969 369.792969 177.722656 C 376.789062 163.671875 373.917969 143.699219 359.429688 135.394531 C 350.914062 131.039062 342 131.582031 338.429688 120.78125 C 335.675781 112.976562 336.054688 104.414062 332.957031 96.707031 C 324.703125 76.898438 300.074219 73.15625 281.21875 77.222656 C 293.824219 67.1875 308.875 59.3125 325.144531 57.957031 C 329.738281 57.75 339.605469 57.195312 340.640625 63.109375 C 340.613281 69.398438 333.183594 74.351562 328.128906 76.933594 C 326.585938 77.660156 327.933594 79.941406 329.46875 79.222656 C 335.101562 76.417969 340.863281 72.160156 342.957031 65.988281 C 345.9375 50.554688 319.308594 55.230469 310.886719 58.039062 C 298.011719 62.023438 286.230469 69.214844 276.117188 78.074219 C 274.570312 67.738281 267.464844 59.140625 259.410156 52.882812 C 251.527344 45.589844 245.886719 36.089844 237.203125 29.605469 C 205.03125 6.125 155.5 24.65625 138.472656 58.4375 C 132.835938 70.347656 131.304688 83.546875 127.800781 96.128906 C 126.402344 99.34375 125.117188 102.613281 123.933594 105.910156 C 123.1875 108 122.515625 109.84375 120.832031 111.371094 C 115.703125 115.574219 108.65625 115.929688 102.628906 118.195312 C 84.570312 124.578125 74.644531 146.824219 80.847656 164.722656 C 82.644531 169.921875 85.988281 175.429688 85.6875 181.109375 C 82.171875 186.789062 75.050781 188.953125 68.917969 190.6875 C 61.710938 192.730469 54.828125 195.429688 48.441406 199.382812 C 33.371094 209.066406 17.5625 225.53125 20.660156 244.886719 C 23.007812 257.324219 35.15625 261.394531 27.195312 275.570312 C 23.613281 282.089844 18.175781 287.679688 16.367188 295.089844 C 12.90625 307.835938 18.023438 322.117188 28.816406 329.726562 C 35.417969 334.636719 43.449219 337.886719 48.640625 344.492188 C 45.75 353.304688 47.433594 364.757812 55.839844 369.917969 C 29.125 421.421875 11.199219 478.382812 12.136719 536.839844 C 8.519531 543.636719 4.289062 550.671875 3.882812 558.535156 C 2.558594 569.496094 8.925781 582.386719 21.640625 578.28125 C 21.375 578.265625 21.855469 578.28125 21.675781 578.28125 C 22.144531 578.417969 22.574219 578.980469 22.84375 579.316406 C 27.011719 586.542969 33.691406 589.8125 41.464844 585.609375 C 107.488281 585.304688 183.804688 586.351562 250.1875 585.195312 C 250.433594 585.4375 250.757812 585.59375 251.101562 585.59375 C 252.996094 585.59375 254.898438 585.59375 256.792969 585.59375 C 261.949219 585.59375 267.105469 585.601562 272.261719 585.609375 C 297.671875 585.621094 327.566406 585.609375 353.207031 585.609375 C 430.410156 585.609375 507.621094 585.609375 584.824219 585.554688 C 595.828125 585.566406 606.84375 585.402344 617.84375 585.503906 C 624.484375 585.039062 623.847656 578.824219 623.734375 573.773438 C 623.734375 572.007812 623.957031 570.074219 623.632812 568.320312 C 622.417969 562.40625 615.714844 563.570312 611.164062 563.527344 C 597.21875 563.515625 583.277344 563.5 569.332031 563.5 C 563.324219 536.550781 557.285156 509.605469 551.246094 482.671875 C 567.449219 482.671875 583.65625 482.671875 599.855469 482.644531 C 604.332031 482.636719 608.53125 481.242188 610.949219 477.140625 C 624.441406 433.496094 636.015625 389.105469 648.832031 345.199219 C 655.070312 323.25 661.296875 301.300781 667.53125 279.347656 C 669.957031 273.902344 666.789062 267.425781 660.515625 267.324219 Z M 326.144531 465.316406 C 325.21875 469.972656 321.523438 475.78125 325.035156 480.027344 C 321.992188 480.027344 318.957031 480.027344 315.914062 480.027344 C 311.945312 480.453125 309.128906 478.21875 310.179688 473.914062 C 320.640625 437.503906 330.890625 401.042969 341.273438 364.617188 C 349.671875 335.128906 357.988281 305.632812 366.398438 276.15625 C 368.726562 267.976562 376.855469 270.308594 383.402344 270 C 381.121094 271.863281 380.117188 274.878906 379.425781 277.722656 C 378.230469 281.929688 377.035156 286.132812 375.839844 290.34375 C 371.75 304.765625 366.640625 322.746094 362.59375 337 C 350.597656 379.246094 338.144531 423.109375 326.152344 465.316406 Z M 463.28125 406.839844 C 474.878906 458.679688 486.792969 511.234375 498.308594 563.082031 C 495.554688 563.082031 492.800781 563.082031 490.054688 563.082031 C 478.175781 509.875 466.117188 456.707031 454.320312 403.488281 C 457.058594 403.488281 459.792969 403.488281 462.53125 403.488281 L 463.289062 406.847656 Z M 462.046875 568.546875 C 462.25 569.832031 462.085938 575.953125 462.148438 577.375 C 462.148438 579.414062 462.246094 581.609375 460.027344 582.621094 C 458.648438 583.183594 457.117188 582.867188 455.660156 582.941406 C 451.4375 582.941406 447.214844 582.941406 442.984375 582.941406 C 438.917969 582.941406 434.859375 582.941406 430.796875 582.941406 C 429.804688 582.941406 428.867188 582.875 428.019531 582.152344 C 426.53125 580.875 426.875 578.761719 426.875 577.007812 C 426.875 574.804688 426.875 572.601562 426.875 570.394531 C 426.570312 568.3125 427.925781 566.164062 430.171875 566.171875 C 439.371094 566.164062 450.96875 566.179688 460.273438 566.171875 C 461.152344 566.671875 461.824219 567.519531 462.046875 568.542969 Z M 469.667969 582.957031 C 467.664062 582.957031 465.652344 582.957031 463.644531 582.957031 C 464.992188 581.152344 464.8125 578.960938 464.8125 576.84375 C 464.574219 573.355469 465.492188 569.394531 463.886719 566.183594 L 469.667969 566.183594 Z M 355.660156 528.054688 C 361.496094 525.039062 367.050781 521.441406 372.757812 518.253906 C 376.003906 517.917969 374.777344 521.605469 373.765625 523.246094 C 369.160156 531.949219 360.011719 537.085938 351.300781 540.929688 C 348.25 538.816406 345.316406 536.550781 342.339844 534.34375 C 346.863281 532.429688 351.3125 530.355469 355.660156 528.054688 Z M 335.339844 535.039062 C 337.882812 534.484375 340.121094 535.871094 341.996094 537.429688 C 346.15625 540.582031 350.367188 543.664062 354.734375 546.535156 C 359.066406 549.378906 363.542969 552.015625 368.203125 554.28125 C 370.066406 555.183594 372.402344 555.863281 373.960938 557.269531 C 375.347656 558.519531 375.058594 560.09375 373.589844 561.136719 C 369.550781 563.628906 364.277344 563.238281 359.746094 562.683594 C 365.953125 555.675781 354.238281 552.703125 349.683594 550.046875 C 342.488281 546.179688 335.753906 541.515625 329.222656 536.613281 C 331.234375 535.988281 333.28125 535.363281 335.335938 535.046875 Z M 318.203125 535.238281 C 320.6875 534.476562 323.214844 535.195312 325.136719 536.878906 C 329.320312 539.96875 333.445312 543.109375 337.777344 545.988281 C 343.847656 550.257812 350.558594 553.429688 357.136719 556.75 C 358.542969 557.660156 359.394531 559.1875 358.078125 560.582031 C 354.476562 563.644531 348.972656 563.144531 344.5625 562.8125 C 346.789062 559.1875 343.644531 556.34375 340.59375 554.734375 C 338 553.058594 335.394531 551.390625 332.792969 549.722656 C 326.0625 545.375 319.292969 541.109375 312.558594 536.777344 C 314.425781 536.214844 316.300781 535.671875 318.203125 535.246094 Z M 277.886719 510.789062 C 282.714844 511.5625 282.460938 513.082031 280.324219 516.839844 C 279.636719 518.34375 279.289062 519.929688 279.898438 521.523438 C 280.867188 524.035156 283.519531 525.128906 285.460938 526.757812 C 289.644531 529.824219 285.0625 533.71875 282.941406 536.378906 C 278.222656 537.65625 273.539062 539.0625 268.898438 540.609375 C 264.785156 541.976562 260.644531 543.769531 256.304688 544.226562 C 251.621094 544.714844 246.972656 543.625 242.394531 542.8125 C 250.167969 534.132812 260.21875 527.910156 271.097656 523.898438 C 272.53125 523.34375 271.996094 521.089844 270.445312 521.535156 C 258.496094 525.300781 247.558594 532.71875 239.503906 542.292969 C 238.910156 542.179688 238.328125 542.078125 237.738281 541.96875 C 237.886719 538.28125 238.039062 534.59375 238.183594 530.902344 C 246.765625 521.0625 260.066406 512.492188 272.105469 510.800781 C 274 510.472656 275.992188 510.445312 277.886719 510.800781 Z M 217.296875 286.882812 C 222.003906 289.464844 227.03125 291.539062 232.242188 292.933594 C 227.835938 298.25 225.128906 304.910156 224.738281 311.847656 C 221.601562 307.832031 218.351562 303.886719 214.914062 300.125 C 215.597656 295.695312 216.363281 291.273438 217.296875 286.882812 Z M 227.175781 315.015625 C 227.101562 306.738281 229.964844 299.992188 234.910156 293.574219 C 239.515625 294.554688 244.246094 294.890625 248.921875 294.148438 C 256.867188 307.527344 245.441406 314.183594 245.160156 326.78125 C 244.886719 334.328125 250.921875 341.476562 248.296875 348.96875 C 242.242188 337.082031 235.175781 325.722656 227.167969 315.046875 C 227.167969 315.035156 227.167969 315.027344 227.167969 315.015625 Z M 251.140625 340.742188 C 250.25 336.703125 248.304688 332.898438 247.914062 328.75 C 246.917969 315.488281 260.09375 308.34375 251.527344 293.621094 C 256.023438 292.5 260.207031 290.414062 264.007812 287.769531 C 272.140625 294.789062 274.507812 307.074219 269.578125 316.621094 C 267.757812 320.578125 266.007812 324.390625 265.472656 328.757812 C 264.957031 332.980469 265.4375 337.371094 266.914062 341.367188 C 268.335938 345.21875 270.554688 348.679688 272.332031 352.363281 C 278.464844 364.773438 274.679688 381.007812 263.894531 389.613281 C 260.582031 376.574219 255.714844 363.957031 249.769531 351.882812 C 251.984375 348.621094 251.957031 344.457031 251.140625 340.734375 Z M 268.941406 397.851562 C 267.957031 398.089844 266.957031 398.28125 265.953125 398.433594 C 265.535156 396.433594 265.082031 394.441406 264.601562 392.457031 C 280.179688 380.535156 281.636719 360.015625 271.074219 344.195312 C 269.113281 340.296875 267.910156 336.183594 267.949219 331.785156 C 267.78125 323.171875 274.164062 316.414062 274.777344 307.960938 C 275.449219 299.917969 272.230469 291.539062 266.164062 286.1875 C 269.722656 283.433594 272.914062 280.242188 275.847656 276.792969 C 280.886719 279.046875 286.066406 281.355469 290.128906 285.152344 C 301.378906 295.675781 303.003906 315.1875 293.0625 327.109375 C 289.863281 331.03125 285.542969 334.933594 285.390625 340.34375 C 285.359375 343.253906 286.863281 345.671875 288.421875 348.015625 C 301.046875 366.496094 291.007812 393.054688 268.945312 397.851562 Z M 301.261719 287.980469 C 309.808594 294.554688 311.347656 306.65625 308.050781 316.410156 C 306.433594 321.558594 303.574219 326.265625 302.25 331.519531 C 300.792969 336.578125 301.867188 341.945312 304.613281 346.375 C 314.171875 359.476562 308.230469 370.597656 294.957031 377.425781 C 298.554688 366.460938 296.359375 354.15625 289.621094 344.871094 C 288.195312 342.527344 287.671875 340.144531 288.738281 337.542969 C 290.824219 332.78125 295.273438 329.582031 297.828125 325.105469 C 305.730469 311.839844 303.09375 293.050781 291.511719 282.75 C 294.976562 284.085938 298.324219 285.667969 301.269531 287.980469 Z M 280.613281 265.730469 C 273.992188 275.667969 265.746094 285.53125 254.3125 289.9375 C 233.632812 296.699219 211.816406 283.132812 198.335938 268.105469 C 197.195312 266.800781 195.292969 268.710938 196.433594 270.007812 C 201.742188 276.074219 207.957031 281.339844 214.851562 285.476562 C 212.386719 296.992188 210.886719 308.714844 209.707031 320.425781 C 208.644531 326.585938 210.613281 336.703125 202.050781 337.601562 C 188.441406 336.945312 174.226562 329.507812 168.234375 316.855469 C 162.464844 304.308594 168.5625 290.777344 171.722656 278.351562 C 173.746094 270.75 175.613281 263.105469 177.308594 255.421875 C 178.648438 247.953125 181.347656 240.523438 180.550781 232.867188 C 180.414062 231.863281 178.929688 231.589844 178.304688 232.273438 C 169.949219 240.3125 158.761719 232.351562 156.574219 222.730469 C 154.335938 213.820312 154.792969 194.75 163.390625 189.433594 C 168.117188 186.402344 173.847656 188.167969 177.695312 191.796875 C 181.980469 195.722656 183.628906 201.480469 185.941406 206.566406 C 186.011719 206.851562 186.195312 207.125 186.519531 207.324219 C 188.710938 208.511719 191.1875 209.191406 193.476562 210.214844 C 200.484375 213.003906 207.433594 215.949219 214.425781 218.78125 C 213.710938 231.917969 222.589844 246.140625 236.128906 248.304688 C 241.480469 256.167969 252.417969 258.957031 261.144531 255.585938 C 262.601562 255.035156 262.011719 252.707031 260.492188 253.214844 C 253.503906 255.621094 244.988281 254.257812 239.871094 248.691406 C 258.714844 249.292969 271.171875 237.597656 269.929688 218.46875 C 273.78125 217.453125 278.058594 218.835938 280.730469 221.734375 C 279.878906 224.019531 279.324219 226.421875 279.089844 228.855469 C 277.929688 226.574219 276.527344 224.046875 274.46875 222.550781 C 273.464844 221.820312 271.996094 223.277344 272.738281 224.28125 C 274.28125 226.109375 275.738281 228.011719 276.769531 230.195312 C 280.9375 236.636719 279.699219 244.855469 271.542969 246.890625 C 269.824219 247.371094 270.582031 249.769531 272.261719 249.5 C 276.363281 248.855469 279.625 245.679688 281.074219 241.890625 C 282.714844 245.964844 285.234375 249.644531 288.496094 252.433594 C 286.085938 256.980469 283.464844 261.417969 280.628906 265.722656 Z M 135.085938 292.128906 C 126.289062 295.761719 117.980469 300.679688 110.195312 306.332031 C 105.441406 299.773438 104.054688 290.957031 106.542969 283.242188 C 108.082031 278.46875 111.328125 274.5625 113.71875 270.222656 C 120.5625 257.816406 121.496094 242.359375 116.167969 229.234375 C 111.371094 217.308594 102.113281 207.1875 99.96875 194.246094 C 98.164062 176.734375 110.976562 161.074219 124.785156 151.84375 C 135.222656 144.84375 147.789062 142.304688 158.679688 136.207031 C 170.355469 130.042969 175.25 118.863281 176.84375 106.28125 C 178.585938 92.949219 180.984375 80.09375 193.007812 72.09375 C 217.859375 53.71875 255.75 60.050781 273.457031 85.328125 C 273.390625 88.601562 273.3125 91.886719 273.128906 95.160156 C 257.570312 69.53125 213.835938 69.378906 200.246094 97.035156 C 193 111.550781 199.085938 130.097656 188.660156 143.300781 C 181.917969 151.210938 171.40625 153.789062 162.121094 157.476562 C 147.042969 162.886719 134.550781 174.925781 129.195312 190.105469 C 123.277344 206.492188 126.476562 225.628906 137.167969 239.335938 C 145.347656 248.976562 150.414062 259.308594 142.578125 271.023438 C 138.472656 276.53125 132.808594 284.183594 137.9375 290.832031 C 136.980469 291.25 136.027344 291.675781 135.078125 292.128906 Z M 106.074219 223.894531 C 103.28125 216.4375 99.820312 209.039062 98.988281 201.03125 C 101.988281 209.851562 107.613281 217.53125 111.746094 225.839844 C 118.421875 238.839844 118.800781 254.796875 111.996094 267.835938 C 109.671875 272.328125 106.410156 276.285156 104.535156 281.019531 C 101.054688 289.816406 102.546875 300.277344 108.140625 307.851562 C 104.597656 310.503906 101.164062 313.285156 97.84375 316.140625 C 98.464844 305.902344 90.070312 296.992188 88.765625 286.945312 C 87.871094 261.71875 121.070312 260.089844 106.089844 223.902344 Z M 140.523438 289.746094 C 136.871094 286.085938 139.105469 280.351562 141.78125 276.765625 C 149.890625 267.261719 151.871094 255.875 144.734375 245.167969 C 141.644531 240.414062 137.757812 236.25 135.011719 231.257812 C 129.59375 221.421875 127.671875 209.632812 129.683594 198.574219 C 132.476562 183.105469 143.039062 169.417969 157.128906 162.53125 C 166.136719 158.09375 176.320312 156.101562 184.707031 150.386719 C 199.207031 141.261719 197.382812 122.742188 199.648438 107.9375 C 200.5625 102.867188 202.25 98.058594 205.25 93.84375 C 221.484375 71.089844 260.71875 74.769531 272.769531 99.875 C 272.152344 107.296875 271.054688 114.667969 269.769531 122.003906 C 241.542969 120.539062 222.039062 135.609375 221.585938 164.734375 C 222.855469 184.226562 216.429688 205.765625 193.164062 205.050781 C 191.214844 204.300781 189.265625 203.527344 187.273438 202.894531 C 184.691406 196.226562 181.195312 189.273438 174.253906 186.382812 C 179.789062 181.3125 188.042969 182.847656 194.792969 180.917969 C 208.222656 177.132812 212.796875 162 212.597656 149.445312 C 212.617188 143.5 211.910156 137.515625 213.1875 131.652344 C 216.402344 117.875 226.167969 104.226562 240.421875 100.664062 C 249.597656 98.464844 260.453125 101.273438 266.109375 109.152344 C 267.070312 110.484375 269.3125 109.226562 268.355469 107.839844 C 263.171875 100.328125 253.796875 96.78125 244.871094 97.316406 C 229.957031 98.230469 218.324219 110.269531 212.96875 123.527344 C 207.714844 134.742188 211.109375 147.089844 209.1875 158.871094 C 208.265625 163.964844 206.335938 168.9375 202.820312 172.820312 C 194.839844 183.019531 179.535156 175.984375 171.417969 185.496094 C 166.117188 184.171875 160.671875 186.964844 157.679688 191.347656 C 153.132812 198.023438 152.980469 206.644531 152.804688 214.453125 C 152.90625 221.707031 154.863281 229.488281 160.605469 234.375 C 165.402344 238.464844 172.859375 239.601562 178.105469 236.023438 C 177.777344 242.335938 175.917969 248.539062 174.722656 254.734375 C 172.703125 263.777344 170.546875 272.789062 167.992188 281.699219 C 158.730469 283.894531 149.371094 286.203125 140.519531 289.765625 Z M 272.59375 121.519531 C 279.976562 121.84375 295.144531 122.449219 295.769531 132.1875 C 295.996094 136.707031 294.097656 141.328125 295.746094 145.746094 C 297.394531 150.167969 301.613281 152.703125 305.839844 154.242188 C 314.433594 156.644531 324.046875 160.367188 327.335938 169.488281 C 331.117188 182.105469 328.136719 199.261719 319.066406 209.039062 C 315.660156 206.855469 311.746094 205.640625 307.738281 205.324219 C 309.632812 195.160156 310.605469 184.824219 310.605469 174.496094 C 310.324219 172.90625 311.429688 167.875 309.179688 167.90625 C 285.050781 166.945312 267.8125 147.53125 272.132812 123.246094 C 272.257812 122.660156 272.375 122.085938 272.484375 121.5 C 272.523438 121.5 272.558594 121.515625 272.601562 121.515625 Z M 289.703125 250.070312 C 280.339844 241.519531 278.9375 226.109375 286.8125 216.167969 C 289.140625 219.835938 293.996094 218.746094 296.023438 215.394531 C 297.292969 213.339844 297.980469 210.949219 298.761719 208.675781 C 300.683594 208.195312 302.539062 207.96875 304.476562 207.921875 C 301.488281 222.550781 296.53125 236.792969 289.703125 250.078125 Z M 269.132812 212.921875 C 267.792969 207.617188 264.695312 202.761719 260.796875 198.972656 C 263.960938 189.582031 253.222656 182.453125 248.476562 192.640625 C 233.78125 190.160156 218.359375 198.066406 215.234375 213.332031 C 214.136719 212.921875 199.902344 207.578125 199.277344 207.34375 C 213.855469 205.59375 222.320312 192.214844 223.832031 178.546875 C 224.738281 172.078125 223.894531 165.539062 224.53125 159.046875 C 227.628906 134.335938 245.65625 123.609375 269.304688 124.6875 C 266.46875 143.066406 276.457031 160.847656 294.011719 167.386719 C 290.507812 167.757812 286.964844 168.757812 284.082031 170.585938 C 282.695312 171.464844 283.894531 173.382812 285.335938 172.742188 C 292 169.554688 301.816406 168.046875 307.882812 173.128906 C 307.96875 183.910156 307.007812 194.679688 305.003906 205.269531 C 303.136719 205.3125 301.261719 205.53125 299.433594 205.941406 C 300.445312 201.65625 298.054688 196.183594 293.253906 196.054688 C 286.101562 196.253906 283.613281 208.1875 285.417969 213.738281 C 284.058594 215.3125 282.898438 217.070312 281.953125 218.9375 C 278.613281 215.996094 273.992188 214.75 269.625 215.675781 C 269.496094 214.75 269.339844 213.828125 269.132812 212.914062 Z M 236.082031 242.5 C 235.148438 239.859375 234.976562 237.191406 235.230469 234.417969 C 235.363281 232.988281 233.007812 232.671875 232.726562 234.082031 C 231.984375 237.796875 232.675781 241.683594 234.285156 245.125 C 226.601562 243.132812 220.90625 236.203125 218.53125 228.929688 C 217.152344 225.058594 216.65625 220.902344 217.289062 216.828125 C 219.011719 201.574219 232.765625 192.660156 247.5 195.25 C 246.128906 199.75 245.621094 205.230469 249.300781 208.753906 C 252.039062 211.375 255.84375 209.84375 257.691406 206.992188 C 258.6875 205.441406 259.265625 203.613281 259.890625 201.890625 C 262.328125 204.417969 264.152344 207.476562 265.597656 210.660156 C 265.582031 210.628906 265.761719 211.054688 265.734375 210.984375 C 267.230469 215.007812 267.496094 219.128906 267.183594 223.457031 C 266.480469 239.519531 252.699219 247.605469 237.683594 245.839844 C 237.035156 244.789062 236.5 243.675781 236.089844 242.5 Z M 307.222656 207.960938 C 310.6875 208.203125 314.128906 209.15625 317.097656 211.019531 C 313.675781 214.128906 309.570312 216.4375 304.984375 217.503906 C 305.847656 214.355469 306.5625 211.164062 307.222656 207.96875 Z M 281.746094 234.183594 C 281.746094 234.144531 281.738281 234.121094 281.746094 234.183594 Z M 300.636719 231.546875 C 305.503906 233.894531 310.511719 235.984375 315.421875 238.265625 C 309.878906 240.796875 303.457031 240.570312 297.546875 239.507812 C 298.636719 236.875 299.683594 234.226562 300.636719 231.546875 Z M 327.917969 234.96875 C 327.816406 235.984375 327.65625 237.007812 327.445312 238.03125 C 326.023438 237.359375 324.539062 236.875 323.113281 236.238281 C 325.097656 234.316406 326.757812 232.046875 328.015625 229.574219 C 328.125 231.367188 328.097656 233.175781 327.917969 234.960938 Z M 326.085938 227.34375 C 324.753906 230.289062 322.78125 232.96875 320.34375 235.089844 C 314.328125 232.644531 308.046875 229.851562 302.015625 227.53125 C 302.800781 225.167969 303.535156 222.789062 304.207031 220.394531 C 309.949219 219.515625 315.160156 216.566406 319.367188 212.632812 C 323.007812 215.632812 325.78125 219.789062 327.167969 224.273438 C 326.910156 225.296875 326.558594 226.320312 326.097656 227.34375 Z M 322.121094 248.675781 C 314.472656 256.128906 300.820312 257.507812 291.867188 251.761719 C 293.496094 248.585938 295.027344 245.359375 296.453125 242.082031 C 304.089844 243.378906 311.945312 243.414062 318.546875 239.671875 C 320.996094 240.738281 323.398438 241.953125 325.871094 242.953125 C 324.953125 245.050781 323.714844 247.007812 322.121094 248.667969 Z M 327.421875 218.25 C 325.835938 215.402344 323.796875 212.757812 321.285156 210.667969 C 330.203125 200.757812 332.726562 186.429688 331.097656 173.519531 C 329.894531 163.710938 321.777344 156.460938 312.6875 153.648438 C 308.101562 152.125 302.605469 151.117188 299.476562 147.050781 C 296.421875 143.078125 298.324219 137.96875 298.460938 133.457031 C 298.925781 120.640625 282.585938 119.152344 272.96875 118.910156 C 273.59375 115.355469 274.097656 111.777344 274.542969 108.203125 C 285.117188 105.074219 300.417969 103.738281 308.964844 112.078125 C 315.710938 120.230469 311.546875 131.652344 320.996094 142.378906 C 324.964844 147.117188 330.417969 150.285156 335.140625 154.179688 C 342.832031 160.46875 350.75 169.242188 349.570312 179.898438 C 348.160156 190.097656 339.960938 197.675781 332.265625 203.726562 C 326.722656 207.585938 327.546875 213.058594 327.800781 218.964844 C 327.675781 218.730469 327.546875 218.496094 327.421875 218.265625 Z M 343.410156 198.332031 C 342.804688 198.613281 342.1875 198.882812 341.570312 199.144531 C 356.195312 185.160156 355.726562 169.289062 340.902344 155.71875 C 336.328125 151.246094 330.84375 147.886719 325.980469 143.78125 C 321.519531 139.839844 318.40625 134.671875 317.027344 128.875 C 315.738281 123.464844 315.605469 117.570312 312.652344 112.6875 C 305.175781 101.378906 286.4375 101.808594 274.859375 105.5 C 275.359375 101.136719 275.722656 96.753906 275.945312 92.375 C 290.597656 87.710938 312.695312 84.957031 319.925781 102.285156 C 321.855469 107.296875 322.21875 112.730469 323.386719 117.9375 C 325.289062 128.417969 333.082031 134.898438 341.953125 139.804688 C 350.804688 144.644531 359.574219 151.039062 362.882812 161.019531 C 368.671875 178.484375 359.320312 191.484375 343.417969 198.347656 Z M 307.984375 79.832031 C 316.292969 81.90625 324.332031 86.753906 328.769531 94.261719 C 332.925781 101.289062 332.910156 109.761719 334.695312 117.523438 C 336.1875 125.402344 340.890625 131.816406 348.75 134.171875 C 352.898438 135.640625 357.101562 136.726562 360.636719 139.472656 C 372.222656 148.703125 373.789062 166.769531 366.042969 178.929688 C 369.007812 169.183594 366.296875 158.320312 359.980469 150.457031 C 353.605469 142.113281 343.402344 138.492188 335.285156 132.257812 C 331.296875 129.117188 328.28125 125.257812 326.757812 120.375 C 325.089844 115.015625 324.828125 109.351562 323.269531 103.964844 C 317.507812 83.253906 292.644531 84.078125 276.0625 89.695312 C 276.171875 86.816406 276.257812 83.925781 276.199219 81.042969 C 286.566406 78.71875 297.539062 77.242188 307.984375 79.839844 Z M 138.679688 64.550781 C 147.667969 40.664062 172.59375 25.109375 197.273438 22.042969 C 219.691406 19.742188 236.894531 28.835938 249.945312 46.761719 C 206.15625 23.21875 154.945312 42.023438 132.910156 85.675781 C 134.539062 78.546875 136.101562 71.40625 138.679688 64.550781 Z M 83.828125 165.050781 C 76.925781 147.351562 87.488281 124.785156 106.125 119.949219 C 118.503906 116.425781 124.03125 116.378906 128.007812 102.785156 C 145.289062 54.921875 190.695312 25.816406 240.582031 45.347656 C 227.257812 42.648438 213.332031 41.707031 200.140625 45.636719 C 175.785156 52.695312 154.71875 71.101562 147.054688 95.601562 C 141.089844 113.71875 132.273438 123.15625 113.847656 128.820312 C 108.816406 130.4375 103.515625 131.636719 99.042969 134.597656 C 91.648438 139.496094 87.84375 148.15625 86.667969 156.699219 C 86.382812 158.820312 86.222656 160.949219 86.238281 163.101562 C 86.242188 164.652344 88.621094 164.652344 88.648438 163.101562 C 88.703125 149.261719 94.929688 136.445312 109.21875 132.96875 C 127.84375 127.855469 141.054688 120.183594 147.742188 101.152344 C 149.945312 95.59375 151.890625 89.933594 154.617188 84.605469 C 166.742188 61.570312 192.589844 46.207031 218.503906 45.617188 C 224.539062 45.519531 230.480469 46.261719 236.398438 47.3125 C 243.828125 48.375 251.210938 50.464844 257.355469 54.921875 C 265.753906 61.0625 273.519531 70.429688 273.546875 81.261719 C 253.097656 54.765625 210.304688 51 186.121094 74.433594 C 170.925781 88.425781 178.953125 112.785156 165.519531 127.640625 C 157.03125 136.699219 143.953125 139.386719 133.027344 144.328125 C 116.929688 151.625 102.484375 165.339844 97.992188 182.824219 C 88.949219 211.257812 113.910156 228.3125 105.3125 250.332031 C 100.78125 260.539062 90.625 267.261719 87.007812 277.960938 C 81.554688 293.078125 97.765625 304.789062 94.695312 318.894531 C 86.855469 325.839844 79.570312 333.34375 73.167969 341.546875 C 65.644531 336.097656 73.355469 326.003906 71.933594 318.703125 C 71.507812 315.679688 69.820312 313.269531 67.808594 311.066406 C 55.898438 300.730469 64.886719 288.621094 72.105469 278.695312 C 80.078125 267.46875 79.28125 258.070312 72.097656 246.726562 C 65.300781 236.082031 61.667969 227.074219 69.277344 215.550781 C 76.34375 204.410156 89.925781 195.277344 88.660156 180.539062 C 88.929688 180.09375 88.859375 179.550781 88.488281 179.234375 C 87.789062 174.316406 85.589844 169.617188 83.8125 165.066406 Z M 35.328125 330.878906 C 23.621094 324.492188 16.390625 312.753906 18.269531 299.238281 C 19.03125 292.054688 23.46875 286.214844 27.402344 280.449219 C 31.695312 274.265625 34.457031 266.023438 30.5625 258.984375 C 28.953125 255.832031 26.648438 253.097656 25.070312 249.933594 C 16.980469 231.746094 32.71875 213.511719 46.855469 203.609375 C 52.816406 199.515625 59.367188 196.339844 66.28125 194.238281 C 71.515625 192.652344 77.289062 191.375 81.933594 188.367188 C 70.273438 197.164062 55.335938 200.714844 45.132812 211.539062 C 37.632812 219.390625 33.726562 230.496094 34.511719 241.3125 C 34.921875 247.015625 36.640625 252.550781 39.503906 257.5 C 42.277344 262.300781 46.820312 265.878906 48.058594 271.472656 C 48.628906 274.027344 48.546875 276.703125 47.867188 279.226562 C 47.109375 282.007812 45.613281 284.164062 43.863281 286.394531 C 40.3125 290.921875 37.574219 296.121094 36.371094 301.78125 C 33.636719 314.292969 40.382812 329.617188 53.367188 333.058594 C 52.019531 335.804688 50.679688 338.640625 49.601562 341.558594 C 45.601562 337.101562 40.375 334.058594 35.320312 330.878906 Z M 50.007812 353.515625 C 49.871094 346.148438 53.339844 339.230469 56.519531 332.789062 C 56.867188 332.082031 56.628906 330.960938 55.707031 330.796875 C 41.089844 328.078125 34.941406 309.800781 40.628906 297.128906 C 45.070312 286.1875 54.410156 282.75 50.089844 268.675781 C 48.25 263.503906 43.882812 259.917969 41.300781 255.140625 C 29.695312 232.296875 43.191406 210.910156 64.832031 201.246094 C 71.699219 197.449219 79.597656 194.464844 85.152344 188.820312 C 79.84375 203.726562 61.351562 212.605469 62.394531 229.945312 C 63.191406 240.742188 72.070312 248.523438 74.730469 258.710938 C 76.375 264.679688 74.097656 270.777344 70.835938 275.769531 C 64.042969 285.515625 53.441406 298.765625 63.308594 310.082031 C 68.5 315.269531 70.808594 318.46875 68.636719 326.03125 C 67.15625 331.78125 65.511719 339.882812 71.554688 343.652344 C 65.9375 351.050781 61.289062 359.230469 57.058594 367.515625 C 52.40625 364.558594 50.113281 358.929688 50.007812 353.523438 Z M 20.199219 476.894531 C 25.605469 447.167969 35.671875 418.496094 48.53125 391.207031 C 61.1875 363.261719 72.640625 341.113281 96.476562 320.816406 C 96.6875 320.722656 96.875 320.5625 97.019531 320.335938 C 116.726562 302.226562 140.972656 289.773438 167.1875 284.519531 C 164.285156 294.765625 161 305.90625 165.085938 316.277344 C 169.550781 327.652344 180.03125 335.089844 191.441406 338.496094 C 196.332031 339.691406 201.96875 341.628906 206.644531 338.851562 C 211.21875 336.285156 211.734375 330.839844 211.84375 326.113281 C 212.523438 318.539062 213.332031 310.960938 214.40625 303.433594 C 270.367188 367.300781 270.128906 428.398438 270.800781 508.320312 C 258.289062 510.679688 246.910156 517.773438 238.335938 527.066406 C 239.1875 508.472656 238.707031 489.539062 244.589844 471.640625 C 254.246094 442.972656 255.921875 421.0625 243.105469 392.925781 C 241.5625 389.410156 239.632812 386.023438 238.335938 382.402344 C 236.527344 377.09375 235.875 371.492188 234.660156 366.039062 C 234.605469 365.75 234.542969 365.453125 234.484375 365.164062 C 234.152344 363.488281 231.589844 364.195312 231.921875 365.871094 C 233.519531 373.449219 234.3125 381.320312 237.984375 388.253906 C 243.566406 399.636719 248.015625 411.859375 249.335938 424.539062 C 252.28125 446.902344 241.144531 467.417969 237.867188 489.03125 C 235.871094 506.441406 236.046875 524.023438 235.113281 541.515625 C 201.160156 535.066406 166.957031 529.765625 133.136719 522.65625 C 125.890625 520.855469 118.6875 518.835938 111.285156 517.820312 C 114.753906 514.640625 112.054688 510.820312 110.023438 507.746094 C 110.023438 507.726562 110.023438 507.699219 110.023438 507.675781 C 113.441406 504.070312 112.171875 499.460938 108.136719 497.023438 C 107.1875 496.453125 106.128906 496.023438 105.554688 495.074219 C 105.25 494.578125 105.230469 493.859375 105.328125 493.324219 C 105.945312 490.671875 107.117188 487.726562 105.195312 485.3125 C 103.335938 482.710938 100.066406 482.175781 97.058594 482.511719 C 96.921875 451.886719 102.121094 421.429688 111.273438 392.265625 C 117.015625 377.054688 120.125 360.351562 118.050781 344.121094 C 117.84375 342.832031 115.632812 343.117188 115.75 344.429688 C 116.972656 356.945312 115.585938 369.609375 112.125 381.683594 C 113.015625 368.414062 110.847656 354.917969 105.4375 342.773438 C 104.886719 341.566406 102.773438 342.4375 103.273438 343.6875 C 110.566406 361.039062 111.589844 380.644531 106.578125 398.734375 C 98.472656 425.925781 94.355469 454.277344 94.375 482.648438 C 63.179688 485.285156 31.578125 506.839844 14.632812 532.75 C 14.746094 514.015625 16.871094 495.335938 20.191406 476.921875 Z M 21.722656 578.300781 C 21.722656 578.300781 21.75 578.3125 21.773438 578.328125 C 21.75 578.320312 21.738281 578.308594 21.722656 578.300781 Z M 32.160156 584.390625 C 30.96875 584.023438 29.902344 583.417969 28.96875 582.648438 C 23.695312 577.042969 21.609375 573.183594 24.835938 565.644531 C 33.210938 543.175781 46.390625 521.730469 65.960938 507.394531 C 67.222656 506.46875 66.015625 504.324219 64.710938 505.257812 C 44.679688 519.65625 31.195312 541.414062 22.542969 564.195312 C 21.160156 567.820312 19.898438 571.78125 21.070312 575.644531 C 19.792969 575.664062 18.511719 576.382812 17.234375 576.535156 C 15.675781 576.527344 14.148438 575.863281 12.777344 575.160156 C 5.847656 571.15625 5.898438 561.894531 7.085938 554.933594 C 17.089844 523.660156 44.808594 500.058594 75.175781 489.25 C 82.152344 486.921875 89.402344 485.382812 96.777344 485.183594 C 99.175781 484.902344 102.410156 485.058594 103.464844 487.609375 C 104.070312 490.851562 101.035156 494.167969 103.816406 497.222656 C 106.6875 500.039062 112.097656 501.144531 107.832031 506.0625 C 86.753906 508.660156 62.222656 523.335938 51.160156 541.660156 C 50.386719 543.035156 52.382812 544.160156 53.257812 542.882812 C 56.367188 538.300781 59.792969 534.089844 63.851562 530.3125 C 73.574219 521.398438 85.398438 514.765625 97.980469 510.808594 C 100.78125 510.292969 103.628906 508.851562 106.535156 509.910156 C 108.960938 510.539062 111.664062 513.832031 109.335938 515.992188 C 105.78125 518.78125 101.097656 519.648438 97.066406 521.585938 C 94.160156 522.835938 91.304688 524.207031 88.515625 525.699219 C 76.980469 531.625 67.132812 540.476562 60.09375 551.386719 C 56.25 557.070312 52.949219 563.109375 50.015625 569.308594 C 48.558594 572.195312 47.53125 575.300781 45.875 578.082031 C 43.023438 582.421875 37.429688 585.8125 32.167969 584.40625 Z M 217.007812 582.945312 C 170.648438 582.945312 90.644531 582.945312 45.269531 582.945312 C 48.773438 579.902344 50.25 575.359375 52.097656 571.246094 C 53.621094 567.992188 55.246094 564.785156 57 561.640625 C 68.914062 539.113281 84.664062 528.609375 108.046875 520.023438 C 116.917969 520.890625 125.488281 523.492188 134.113281 525.59375 C 142.914062 527.730469 151.902344 529.097656 160.808594 530.71875 C 187.996094 535.648438 215.171875 540.589844 242.359375 545.519531 C 246.566406 546.28125 250.859375 547.214844 255.164062 546.988281 C 259.421875 546.769531 263.40625 545.300781 267.402344 543.933594 C 275.828125 541.054688 284.398438 538.601562 293.070312 536.589844 C 297.277344 535.617188 301.632812 534.269531 305.8125 536.0625 C 314.6875 540.765625 322.851562 546.816406 331.425781 552.058594 C 334.03125 553.726562 336.625 555.402344 339.226562 557.078125 C 340.140625 557.667969 341.570312 558.257812 342.214844 559.160156 C 343.019531 560.277344 342.414062 561.699219 341.226562 562.195312 C 326.859375 566.898438 314.914062 553.300781 301.035156 552.613281 C 295.398438 552.601562 294.167969 559.234375 291.640625 563.066406 C 282.851562 563.066406 274.070312 563.074219 265.28125 563.101562 C 264.703125 563.101562 264.332031 563.417969 264.160156 563.824219 C 259.710938 570.066406 255.21875 576.273438 250.761719 582.511719 C 239.515625 583.292969 228.273438 582.832031 217.015625 582.949219 Z M 299.042969 555.855469 C 304.449219 553.472656 316.972656 561.117188 322.574219 563.058594 C 313.304688 563.058594 304.042969 563.058594 294.773438 563.058594 C 296.144531 560.664062 296.984375 557.75 299.042969 555.847656 Z M 254.183594 582.195312 C 258.089844 576.695312 261.996094 571.183594 265.890625 565.671875 C 273.933594 565.691406 281.972656 565.699219 290.019531 565.699219 C 282.136719 577.261719 267.304688 580.671875 254.191406 582.1875 Z M 396.113281 582.964844 C 352.742188 582.964844 309.378906 582.949219 266.007812 582.964844 C 276.773438 580.648438 287.4375 575.355469 293.242188 565.699219 C 336.617188 565.730469 382.242188 565.699219 425.609375 565.710938 C 423.378906 568.308594 424.410156 572.347656 424.195312 575.546875 C 424.195312 577.964844 423.722656 580.863281 425.191406 582.957031 C 415.503906 582.957031 405.808594 582.957031 396.117188 582.957031 Z M 581.039062 566.183594 C 592.375 566.179688 603.710938 566.171875 615.054688 566.152344 C 616.800781 566.226562 618.832031 565.738281 620.207031 567.121094 C 621.546875 568.445312 621.195312 570.585938 621.203125 572.296875 C 621.203125 574.425781 621.210938 576.550781 621.214844 578.679688 C 621.8125 584.363281 615.597656 582.9375 611.933594 583.085938 C 565.363281 582.929688 518.792969 583.003906 472.222656 582.964844 L 472.222656 566.191406 C 492.164062 566.191406 562.355469 566.191406 581.050781 566.183594 Z M 553.394531 504.34375 C 557.789062 523.953125 562.246094 543.554688 566.625 563.171875 C 544.742188 563.046875 522.851562 563.121094 500.960938 563.101562 C 489.039062 509.902344 477.035156 456.714844 465.15625 403.503906 C 487.011719 403.503906 508.875 403.503906 530.734375 403.503906 C 538.273438 437.121094 545.832031 470.734375 553.386719 504.34375 Z M 665.511719 276.675781 C 646.683594 342.761719 628.0625 408.929688 609.164062 474.976562 C 607.46875 479.058594 603.074219 480.464844 598.96875 480.066406 C 582.859375 480.039062 566.75 480.046875 550.648438 480.039062 C 544.796875 453.960938 538.964844 427.875 533.09375 401.800781 C 532.964844 401.230469 532.375 400.816406 531.804688 400.816406 C 505.402344 400.816406 478.992188 400.816406 452.589844 400.816406 C 451.691406 400.816406 451.113281 401.667969 451.304688 402.507812 C 457.121094 428.34375 462.917969 454.195312 468.726562 480.03125 C 422.417969 480.03125 376.101562 480.03125 329.792969 480.03125 C 323.859375 478.707031 326.667969 473.015625 327.761719 468.980469 C 329.195312 463.933594 330.625 458.894531 332.058594 453.84375 C 339.515625 427.59375 346.964844 401.347656 354.421875 375.089844 C 363.84375 341.9375 373.253906 308.777344 382.671875 275.621094 C 383.605469 272.507812 386.265625 270.34375 389.4375 270 C 445.089844 270 500.753906 270 556.40625 270 C 588.804688 270 621.195312 270 653.59375 270 C 655.867188 270 658.144531 269.933594 660.410156 270 C 664.007812 270.117188 666.386719 273.121094 665.519531 276.65625 Z M 665.511719 276.675781 " fill-opacity="1" fill-rule="nonzero"/><g fill="#f1feff" fill-opacity="1"><g transform="translate(470.201787, 316.060057)"><g><path d="M 14.472656 -17.28125 L 2.226562 -17.28125 C 1.402344 -17.28125 0.710938 -16.609375 0.710938 -15.769531 L 0.710938 -12.808594 C 0.710938 -11.988281 1.402344 -11.296875 2.226562 -11.296875 L 5.207031 -11.296875 C 5.292969 -11.296875 5.355469 -11.210938 5.355469 -11.144531 L 5.355469 -1.46875 C 5.355469 -0.648438 6.027344 0.0429688 6.890625 0.0429688 L 9.828125 0.0429688 C 10.648438 0.0429688 11.339844 -0.648438 11.339844 -1.46875 L 11.339844 -11.144531 C 11.339844 -11.210938 11.425781 -11.296875 11.511719 -11.296875 L 14.472656 -11.296875 C 15.292969 -11.296875 15.984375 -11.988281 15.984375 -12.808594 L 15.984375 -15.769531 C 15.984375 -16.609375 15.292969 -17.28125 14.472656 -17.28125 Z M 14.472656 -17.28125 "/></g></g></g><g fill="#f1feff" fill-opacity="1"><g transform="translate(486.898176, 316.060057)"><g><path d="M 16.480469 -1.8125 L 12.808594 -15.789062 C 12.742188 -16.046875 12.679688 -16.4375 12.375 -16.78125 C 12.050781 -17.105469 11.640625 -17.191406 11.339844 -17.191406 L 5.679688 -17.191406 C 5.355469 -17.191406 5.054688 -17.085938 4.839844 -16.914062 C 4.621094 -16.761719 4.382812 -16.503906 4.296875 -16.113281 L 0.410156 -1.835938 C 0.238281 -1.144531 0.5625 -0.410156 1.210938 -0.128906 C 1.382812 -0.0429688 1.554688 -0.0234375 1.769531 -0.0234375 L 4.707031 -0.0234375 C 5.507812 -0.0234375 5.832031 -0.519531 6.15625 -1.339844 L 6.78125 -3.023438 L 10.085938 -3.023438 L 10.734375 -1.339844 C 11.058594 -0.519531 11.382812 0 12.183594 0 L 15.121094 0 C 15.355469 0 15.59375 -0.0664062 15.769531 -0.171875 C 16.351562 -0.476562 16.632812 -1.167969 16.480469 -1.8125 Z M 9.460938 -8.011719 L 7.453125 -8.011719 C 7.234375 -8.011719 7.0625 -8.207031 7.171875 -8.421875 L 7.734375 -9.890625 L 8.164062 -11.015625 C 8.25 -11.296875 8.640625 -11.296875 8.726562 -11.015625 L 9.179688 -9.890625 L 9.742188 -8.421875 C 9.804688 -8.207031 9.65625 -8.011719 9.460938 -8.011719 Z M 9.460938 -8.011719 "/></g></g></g><g fill="#f1feff" fill-opacity="1"><g transform="translate(503.788961, 316.060057)"><g><path d="M 12.765625 -14.621094 C 12.289062 -16.179688 10.863281 -17.238281 9.246094 -17.238281 L 2.398438 -17.238281 C 1.46875 -17.238281 0.710938 -16.457031 0.710938 -15.53125 L 0.710938 -1.75 C 0.710938 -0.800781 1.46875 -0.0429688 2.398438 -0.0429688 L 4.644531 -0.0429688 C 5.574219 -0.0429688 6.328125 -0.800781 6.328125 -1.75 L 6.328125 -5.703125 L 9.332031 -5.703125 C 10.238281 -5.703125 11.101562 -6.089844 11.683594 -6.78125 C 12.398438 -7.644531 13.132812 -9.136719 13.132812 -11.621094 C 13.132812 -12.875 12.980469 -13.886719 12.765625 -14.621094 Z M 8.292969 -11.664062 L 8.292969 -11.363281 C 8.292969 -10.625 7.734375 -10.066406 7.019531 -10.066406 L 6.609375 -10.066406 C 6.4375 -10.066406 6.328125 -10.171875 6.328125 -10.324219 L 6.328125 -12.65625 C 6.328125 -12.808594 6.4375 -12.960938 6.609375 -12.960938 L 7.019531 -12.960938 C 7.734375 -12.960938 8.292969 -12.355469 8.292969 -11.664062 Z M 8.292969 -11.664062 "/></g></g></g><g fill="#f1feff" fill-opacity="1"><g transform="translate(517.288626, 316.060057)"><g/></g></g><g fill="#f1feff" fill-opacity="1"><g transform="translate(524.632448, 316.060057)"><g><path d="M 14.472656 -17.28125 L 2.226562 -17.28125 C 1.402344 -17.28125 0.710938 -16.609375 0.710938 -15.769531 L 0.710938 -12.808594 C 0.710938 -11.988281 1.402344 -11.296875 2.226562 -11.296875 L 5.207031 -11.296875 C 5.292969 -11.296875 5.355469 -11.210938 5.355469 -11.144531 L 5.355469 -1.46875 C 5.355469 -0.648438 6.027344 0.0429688 6.890625 0.0429688 L 9.828125 0.0429688 C 10.648438 0.0429688 11.339844 -0.648438 11.339844 -1.46875 L 11.339844 -11.144531 C 11.339844 -11.210938 11.425781 -11.296875 11.511719 -11.296875 L 14.472656 -11.296875 C 15.292969 -11.296875 15.984375 -11.988281 15.984375 -12.808594 L 15.984375 -15.769531 C 15.984375 -16.609375 15.292969 -17.28125 14.472656 -17.28125 Z M 14.472656 -17.28125 "/></g></g></g><g fill="#f1feff" fill-opacity="1"><g transform="translate(541.328838, 316.060057)"><g><path d="M 7.410156 -17.539062 C 3.867188 -17.539062 0.367188 -14.6875 0.367188 -11.125 L 0.367188 -6.199219 C 0.367188 -2.503906 3.867188 0.367188 7.410156 0.367188 C 11.039062 0.367188 14.449219 -2.503906 14.449219 -6.199219 L 14.449219 -11.125 C 14.449219 -14.6875 11.039062 -17.539062 7.410156 -17.539062 Z M 8.855469 -6.414062 C 8.855469 -5.679688 8.1875 -5.03125 7.410156 -5.03125 C 6.609375 -5.03125 5.984375 -5.679688 5.984375 -6.414062 L 5.984375 -10.734375 C 5.984375 -11.511719 6.609375 -12.160156 7.410156 -12.160156 C 8.1875 -12.160156 8.855469 -11.511719 8.855469 -10.734375 Z M 8.855469 -6.414062 "/></g></g></g><path stroke-linecap="butt" transform="matrix(0.539987, 0, 0, 0.539987, 397.658037, 298.24088)" fill="none" stroke-linejoin="miter" d="M 162.514985 -0.00481332 L 139.836499 -0.00481332 C 138.317366 -0.00481332 137.036954 1.239429 137.036954 2.801966 L 137.036954 8.278079 C 137.036954 9.804445 138.317366 11.084858 139.836499 11.084858 L 145.356016 11.084858 C 145.522397 11.084858 145.638141 11.236771 145.638141 11.352514 L 145.638141 29.278284 C 145.638141 30.797417 146.882383 32.077829 148.48109 32.077829 L 153.921033 32.077829 C 155.432932 32.077829 156.713344 30.797417 156.713344 29.278284 L 156.713344 11.352514 C 156.713344 11.236771 156.879725 11.084858 157.038872 11.084858 L 162.514985 11.084858 C 164.041352 11.084858 165.321764 9.804445 165.321764 8.278079 L 165.321764 2.801966 C 165.321764 1.239429 164.041352 -0.00481332 162.514985 -0.00481332 Z M 197.158451 28.641695 L 190.358523 2.758562 C 190.242779 2.28112 190.112568 1.557723 189.555552 0.9139 C 188.962367 0.320715 188.202801 0.161568 187.631317 0.161568 L 177.156534 0.161568 C 176.563348 0.161568 175.991865 0.356885 175.601231 0.682414 C 175.203363 0.964538 174.754857 1.44198 174.595709 2.158143 L 167.397912 28.598291 C 167.079618 29.878703 167.672803 31.238689 168.873642 31.7523 C 169.19917 31.918682 169.517465 31.962085 169.922567 31.962085 L 175.36251 31.962085 C 176.831005 31.962085 177.438658 31.043372 178.031844 29.517005 L 179.196512 26.406399 L 185.323682 26.406399 L 186.52452 29.517005 C 187.117706 31.043372 187.725359 31.998255 189.193854 31.998255 L 194.633797 31.998255 C 195.075069 31.998255 195.516341 31.882512 195.834635 31.679961 C 196.91973 31.122945 197.440576 29.842533 197.158451 28.641695 Z M 184.159013 17.154156 L 180.440754 17.154156 C 180.035652 17.154156 179.717358 16.806925 179.919909 16.401823 L 180.954366 13.681852 L 181.757336 11.598469 C 181.923718 11.084858 182.632646 11.084858 182.799028 11.598469 L 183.638168 13.681852 L 184.672625 16.401823 C 184.802836 16.806925 184.520712 17.154156 184.159013 17.154156 Z M 221.558621 4.921518 C 220.683311 2.042399 218.035679 0.0747603 215.040817 0.0747603 L 202.359673 0.0747603 C 200.645223 0.0747603 199.2346 1.521554 199.2346 3.243238 L 199.2346 28.757438 C 199.2346 30.515292 200.645223 31.918682 202.359673 31.918682 L 206.519204 31.918682 C 208.240888 31.918682 209.637044 30.515292 209.637044 28.757438 L 209.637044 21.443898 L 215.19273 21.443898 C 216.885478 21.443898 218.476951 20.720501 219.562046 19.440089 C 220.878628 17.841382 222.238614 15.078007 222.238614 10.477204 C 222.238614 8.162335 221.963723 6.27427 221.558621 4.921518 Z M 213.282963 10.397631 L 213.282963 10.96188 C 213.282963 12.321866 212.234038 13.356323 210.917456 13.356323 L 210.157889 13.356323 C 209.839595 13.356323 209.637044 13.161006 209.637044 12.878881 L 209.637044 8.560203 C 209.637044 8.278079 209.839595 7.995954 210.157889 7.995954 L 210.917456 7.995954 C 212.234038 7.995954 213.282963 9.117219 213.282963 10.397631 Z M 263.313077 -0.00481332 L 240.641825 -0.00481332 C 239.115458 -0.00481332 237.835046 1.239429 237.835046 2.801966 L 237.835046 8.278079 C 237.835046 9.804445 239.115458 11.084858 240.641825 11.084858 L 246.154108 11.084858 C 246.320489 11.084858 246.443466 11.236771 246.443466 11.352514 L 246.443466 29.278284 C 246.443466 30.797417 247.680475 32.077829 249.279181 32.077829 L 254.719124 32.077829 C 256.238257 32.077829 257.511435 30.797417 257.511435 29.278284 L 257.511435 11.352514 C 257.511435 11.236771 257.677817 11.084858 257.836964 11.084858 L 263.313077 11.084858 C 264.839444 11.084858 266.119856 9.804445 266.119856 8.278079 L 266.119856 2.801966 C 266.119856 1.239429 264.839444 -0.00481332 263.313077 -0.00481332 Z M 281.159272 -0.482255 C 274.598065 -0.482255 268.123664 4.805775 268.123664 11.403152 L 268.123664 20.51795 C 268.123664 27.361283 274.598065 32.685482 281.159272 32.685482 C 287.879627 32.685482 294.19488 27.361283 294.19488 20.51795 L 294.19488 11.403152 C 294.19488 4.805775 287.879627 -0.482255 281.159272 -0.482255 Z M 283.83584 20.112848 C 283.83584 21.480068 282.591598 22.680906 281.159272 22.680906 C 279.676309 22.680906 278.526108 21.480068 278.526108 20.112848 L 278.526108 12.119315 C 278.526108 10.679755 279.676309 9.478917 281.159272 9.478917 C 282.591598 9.478917 283.83584 10.679755 283.83584 12.119315 Z M 283.83584 20.112848 " stroke="#0f172a" stroke-width="0.65" stroke-opacity="1" stroke-miterlimit="4"/><g fill="#f1feff" fill-opacity="1"><g transform="translate(556.144137, 316.060057)"><g/></g></g><g fill="#f1feff" fill-opacity="1"><g transform="translate(417.907393, 335.499599)"><g><path d="M 22.03125 -14.796875 L 22.140625 -15.53125 C 22.160156 -15.617188 22.160156 -15.703125 22.160156 -15.8125 C 22.160156 -16.609375 21.492188 -17.28125 20.691406 -17.28125 L 17.796875 -17.28125 C 17.085938 -17.257812 16.503906 -16.71875 16.394531 -16.027344 L 15.3125 -9.9375 L 15.226562 -9.503906 L 15.183594 -9.742188 L 14.34375 -15.941406 C 14.234375 -16.695312 13.628906 -17.28125 12.851562 -17.28125 L 9.742188 -17.28125 C 8.984375 -17.28125 8.359375 -16.695312 8.273438 -15.941406 L 7.34375 -9.308594 L 7.234375 -9.9375 L 6.175781 -16.027344 C 6.070312 -16.71875 5.464844 -17.257812 4.75 -17.28125 L 1.878906 -17.28125 C 1.035156 -17.28125 0.367188 -16.609375 0.367188 -15.8125 C 0.367188 -15.703125 0.367188 -15.679688 0.390625 -15.53125 L 0.691406 -13.757812 L 1.621094 -8.078125 L 2.699219 -1.578125 C 2.851562 -0.691406 3.671875 0 4.621094 0 L 8.359375 0 C 9.351562 -0.0234375 10.171875 -0.757812 10.304688 -1.726562 L 10.90625 -6.675781 C 10.929688 -6.890625 11.058594 -7.042969 11.273438 -7.042969 C 11.46875 -7.042969 11.621094 -6.910156 11.664062 -6.71875 L 12.484375 -1.578125 C 12.679688 -0.691406 13.476562 0 14.429688 0 L 18.1875 0 C 19.160156 -0.0234375 19.957031 -0.734375 20.109375 -1.683594 Z M 22.03125 -14.796875 "/></g></g></g><g fill="#f1feff" fill-opacity="1"><g transform="translate(440.435638, 335.499599)"><g><path d="M 16.480469 -1.8125 L 12.808594 -15.789062 C 12.742188 -16.046875 12.679688 -16.4375 12.375 -16.78125 C 12.050781 -17.105469 11.640625 -17.191406 11.339844 -17.191406 L 5.679688 -17.191406 C 5.355469 -17.191406 5.054688 -17.085938 4.839844 -16.914062 C 4.621094 -16.761719 4.382812 -16.503906 4.296875 -16.113281 L 0.410156 -1.835938 C 0.238281 -1.144531 0.5625 -0.410156 1.210938 -0.128906 C 1.382812 -0.0429688 1.554688 -0.0234375 1.769531 -0.0234375 L 4.707031 -0.0234375 C 5.507812 -0.0234375 5.832031 -0.519531 6.15625 -1.339844 L 6.78125 -3.023438 L 10.085938 -3.023438 L 10.734375 -1.339844 C 11.058594 -0.519531 11.382812 0 12.183594 0 L 15.121094 0 C 15.355469 0 15.59375 -0.0664062 15.769531 -0.171875 C 16.351562 -0.476562 16.632812 -1.167969 16.480469 -1.8125 Z M 9.460938 -8.011719 L 7.453125 -8.011719 C 7.234375 -8.011719 7.0625 -8.207031 7.171875 -8.421875 L 7.734375 -9.890625 L 8.164062 -11.015625 C 8.25 -11.296875 8.640625 -11.296875 8.726562 -11.015625 L 9.179688 -9.890625 L 9.742188 -8.421875 C 9.804688 -8.207031 9.65625 -8.011719 9.460938 -8.011719 Z M 9.460938 -8.011719 "/></g></g></g><g fill="#f1feff" fill-opacity="1"><g transform="translate(457.326423, 335.499599)"><g><path d="M 14.472656 -17.28125 L 2.226562 -17.28125 C 1.402344 -17.28125 0.710938 -16.609375 0.710938 -15.769531 L 0.710938 -12.808594 C 0.710938 -11.988281 1.402344 -11.296875 2.226562 -11.296875 L 5.207031 -11.296875 C 5.292969 -11.296875 5.355469 -11.210938 5.355469 -11.144531 L 5.355469 -1.46875 C 5.355469 -0.648438 6.027344 0.0429688 6.890625 0.0429688 L 9.828125 0.0429688 C 10.648438 0.0429688 11.339844 -0.648438 11.339844 -1.46875 L 11.339844 -11.144531 C 11.339844 -11.210938 11.425781 -11.296875 11.511719 -11.296875 L 14.472656 -11.296875 C 15.292969 -11.296875 15.984375 -11.988281 15.984375 -12.808594 L 15.984375 -15.769531 C 15.984375 -16.609375 15.292969 -17.28125 14.472656 -17.28125 Z M 14.472656 -17.28125 "/></g></g></g><g fill="#f1feff" fill-opacity="1"><g transform="translate(474.022813, 335.499599)"><g><path d="M 9.15625 -6.847656 C 8.964844 -6.847656 8.8125 -6.695312 8.8125 -6.5 C 8.8125 -5.765625 8.144531 -5.117188 7.386719 -5.117188 C 6.585938 -5.117188 5.960938 -5.765625 5.960938 -6.5 L 5.960938 -10.777344 C 5.960938 -11.816406 7.0625 -12.636719 8.230469 -11.964844 C 8.554688 -11.773438 8.8125 -11.296875 8.8125 -10.90625 L 8.8125 -10.800781 C 8.8125 -10.625 8.964844 -10.453125 9.15625 -10.453125 L 14.082031 -10.453125 C 14.234375 -10.453125 14.386719 -10.605469 14.386719 -10.777344 L 14.386719 -11.167969 C 14.386719 -14.710938 10.996094 -17.558594 7.386719 -17.558594 C 3.84375 -17.558594 0.367188 -14.710938 0.367188 -11.167969 L 0.367188 -6.285156 C 0.367188 -2.613281 3.84375 0.257812 7.386719 0.257812 C 10.996094 0.257812 14.386719 -2.613281 14.386719 -6.285156 L 14.386719 -6.542969 C 14.386719 -6.695312 14.234375 -6.847656 14.082031 -6.847656 Z M 9.15625 -6.847656 "/></g></g></g><g fill="#f1feff" fill-opacity="1"><g transform="translate(488.775253, 335.499599)"><g><path d="M 12.894531 -17.34375 L 10.171875 -17.34375 C 9.289062 -17.34375 8.574219 -16.632812 8.574219 -15.746094 L 8.574219 -11.902344 C 8.574219 -11.773438 8.46875 -11.640625 8.359375 -11.621094 L 6.867188 -11.621094 C 6.761719 -11.640625 6.652344 -11.773438 6.632812 -11.878906 L 6.632812 -15.746094 C 6.632812 -16.632812 5.917969 -17.34375 5.03125 -17.34375 L 2.3125 -17.34375 C 1.425781 -17.34375 0.710938 -16.632812 0.710938 -15.746094 L 0.710938 -1.578125 C 0.710938 -0.667969 1.425781 0.0429688 2.3125 0.0429688 L 5.03125 0.0429688 C 5.917969 0.0429688 6.632812 -0.667969 6.632812 -1.578125 L 6.632812 -5.398438 C 6.652344 -5.550781 6.71875 -5.636719 6.867188 -5.679688 L 8.359375 -5.679688 C 8.46875 -5.636719 8.574219 -5.550781 8.574219 -5.398438 L 8.574219 -1.578125 C 8.574219 -0.667969 9.289062 0.0429688 10.171875 0.0429688 L 12.894531 0.0429688 C 13.800781 0.0429688 14.515625 -0.667969 14.515625 -1.578125 L 14.515625 -15.746094 C 14.515625 -16.632812 13.800781 -17.34375 12.894531 -17.34375 Z M 12.894531 -17.34375 "/></g></g></g><g fill="#f1feff" fill-opacity="1"><g transform="translate(504.002876, 335.499599)"><g/></g></g><g fill="#f1feff" fill-opacity="1"><g transform="translate(511.346698, 335.499599)"><g><path d="M 22.03125 -14.796875 L 22.140625 -15.53125 C 22.160156 -15.617188 22.160156 -15.703125 22.160156 -15.8125 C 22.160156 -16.609375 21.492188 -17.28125 20.691406 -17.28125 L 17.796875 -17.28125 C 17.085938 -17.257812 16.503906 -16.71875 16.394531 -16.027344 L 15.3125 -9.9375 L 15.226562 -9.503906 L 15.183594 -9.742188 L 14.34375 -15.941406 C 14.234375 -16.695312 13.628906 -17.28125 12.851562 -17.28125 L 9.742188 -17.28125 C 8.984375 -17.28125 8.359375 -16.695312 8.273438 -15.941406 L 7.34375 -9.308594 L 7.234375 -9.9375 L 6.175781 -16.027344 C 6.070312 -16.71875 5.464844 -17.257812 4.75 -17.28125 L 1.878906 -17.28125 C 1.035156 -17.28125 0.367188 -16.609375 0.367188 -15.8125 C 0.367188 -15.703125 0.367188 -15.679688 0.390625 -15.53125 L 0.691406 -13.757812 L 1.621094 -8.078125 L 2.699219 -1.578125 C 2.851562 -0.691406 3.671875 0 4.621094 0 L 8.359375 0 C 9.351562 -0.0234375 10.171875 -0.757812 10.304688 -1.726562 L 10.90625 -6.675781 C 10.929688 -6.890625 11.058594 -7.042969 11.273438 -7.042969 C 11.46875 -7.042969 11.621094 -6.910156 11.664062 -6.71875 L 12.484375 -1.578125 C 12.679688 -0.691406 13.476562 0 14.429688 0 L 18.1875 0 C 19.160156 -0.0234375 19.957031 -0.734375 20.109375 -1.683594 Z M 22.03125 -14.796875 "/></g></g></g><g fill="#f1feff" fill-opacity="1"><g transform="translate(533.874943, 335.499599)"><g><path d="M 2.246094 0.0234375 L 4.925781 0.0234375 C 5.832031 0.0234375 6.480469 -0.710938 6.480469 -1.535156 L 6.480469 -15.722656 C 6.480469 -16.632812 5.832031 -17.28125 4.925781 -17.28125 L 2.246094 -17.28125 C 1.402344 -17.28125 0.710938 -16.632812 0.710938 -15.722656 L 0.710938 -1.535156 C 0.710938 -0.710938 1.402344 0.0234375 2.246094 0.0234375 Z M 2.246094 0.0234375 "/></g></g></g><g fill="#f1feff" fill-opacity="1"><g transform="translate(541.067569, 335.499599)"><g><path d="M 14.472656 -17.28125 L 2.226562 -17.28125 C 1.402344 -17.28125 0.710938 -16.609375 0.710938 -15.769531 L 0.710938 -12.808594 C 0.710938 -11.988281 1.402344 -11.296875 2.226562 -11.296875 L 5.207031 -11.296875 C 5.292969 -11.296875 5.355469 -11.210938 5.355469 -11.144531 L 5.355469 -1.46875 C 5.355469 -0.648438 6.027344 0.0429688 6.890625 0.0429688 L 9.828125 0.0429688 C 10.648438 0.0429688 11.339844 -0.648438 11.339844 -1.46875 L 11.339844 -11.144531 C 11.339844 -11.210938 11.425781 -11.296875 11.511719 -11.296875 L 14.472656 -11.296875 C 15.292969 -11.296875 15.984375 -11.988281 15.984375 -12.808594 L 15.984375 -15.769531 C 15.984375 -16.609375 15.292969 -17.28125 14.472656 -17.28125 Z M 14.472656 -17.28125 "/></g></g></g><g fill="#f1feff" fill-opacity="1"><g transform="translate(557.763967, 335.499599)"><g><path d="M 12.894531 -17.34375 L 10.171875 -17.34375 C 9.289062 -17.34375 8.574219 -16.632812 8.574219 -15.746094 L 8.574219 -11.902344 C 8.574219 -11.773438 8.46875 -11.640625 8.359375 -11.621094 L 6.867188 -11.621094 C 6.761719 -11.640625 6.652344 -11.773438 6.632812 -11.878906 L 6.632812 -15.746094 C 6.632812 -16.632812 5.917969 -17.34375 5.03125 -17.34375 L 2.3125 -17.34375 C 1.425781 -17.34375 0.710938 -16.632812 0.710938 -15.746094 L 0.710938 -1.578125 C 0.710938 -0.667969 1.425781 0.0429688 2.3125 0.0429688 L 5.03125 0.0429688 C 5.917969 0.0429688 6.632812 -0.667969 6.632812 -1.578125 L 6.632812 -5.398438 C 6.652344 -5.550781 6.71875 -5.636719 6.867188 -5.679688 L 8.359375 -5.679688 C 8.46875 -5.636719 8.574219 -5.550781 8.574219 -5.398438 L 8.574219 -1.578125 C 8.574219 -0.667969 9.289062 0.0429688 10.171875 0.0429688 L 12.894531 0.0429688 C 13.800781 0.0429688 14.515625 -0.667969 14.515625 -1.578125 L 14.515625 -15.746094 C 14.515625 -16.632812 13.800781 -17.34375 12.894531 -17.34375 Z M 12.894531 -17.34375 "/></g></g></g><g fill="#f1feff" fill-opacity="1"><g transform="translate(572.991582, 335.499599)"><g/></g></g><g fill="#f1feff" fill-opacity="1"><g transform="translate(580.335396, 335.499599)"><g><path d="M 22.097656 -1.492188 C 22.097656 -1.640625 22.097656 -1.554688 20.042969 -15.550781 C 19.871094 -16.480469 19.074219 -17.191406 18.101562 -17.214844 L 14.363281 -17.214844 C 13.414062 -17.214844 12.613281 -16.546875 12.464844 -15.636719 L 11.597656 -10.519531 C 11.578125 -10.324219 11.425781 -10.195312 11.230469 -10.195312 C 11.015625 -10.195312 10.84375 -10.390625 10.84375 -10.582031 L 10.84375 -10.5625 L 10.257812 -15.507812 C 10.128906 -16.457031 9.308594 -17.191406 8.316406 -17.214844 L 4.578125 -17.214844 C 3.628906 -17.214844 2.851562 -16.546875 2.679688 -15.636719 L 1.621094 -9.179688 L 0.667969 -3.519531 L 0.390625 -1.75 C 0.367188 -1.640625 0.367188 -1.554688 0.367188 -1.492188 C 0.367188 -0.667969 1.035156 0 1.835938 0 L 4.730469 0 C 5.441406 -0.0234375 6.027344 -0.539062 6.132812 -1.230469 L 7.214844 -7.320312 L 7.320312 -7.949219 L 8.25 -1.316406 C 8.316406 -0.582031 8.941406 0 9.699219 0 L 12.808594 0 C 13.566406 0 14.191406 -0.582031 14.277344 -1.316406 L 15.121094 -7.515625 L 15.164062 -7.734375 L 15.269531 -7.320312 L 16.308594 -1.230469 C 16.4375 -0.539062 17.019531 -0.0234375 17.734375 0 L 20.605469 0 C 21.449219 0 22.097656 -0.667969 22.097656 -1.492188 Z M 22.097656 -1.492188 "/></g></g></g><g fill="#f1feff" fill-opacity="1"><g transform="translate(602.798854, 335.499599)"><g><path d="M 6.738281 -12.59375 L 11.125 -12.59375 C 11.75 -12.59375 12.269531 -13.109375 12.269531 -13.714844 L 12.269531 -16.136719 C 12.269531 -16.761719 11.75 -17.257812 11.125 -17.257812 L 2.289062 -17.257812 C 1.402344 -17.257812 0.710938 -16.566406 0.710938 -16.070312 L 0.710938 -2.007812 C 0.710938 -0.734375 1.402344 -0.0429688 2.289062 -0.0429688 L 11.125 -0.0429688 C 11.75 -0.0429688 12.269531 -0.539062 12.269531 -1.167969 L 12.269531 -3.585938 C 12.269531 -4.210938 11.75 -4.75 11.125 -4.75 L 6.738281 -4.75 C 6.652344 -4.75 6.585938 -4.816406 6.585938 -4.902344 L 6.585938 -6.285156 C 6.585938 -6.371094 6.652344 -6.4375 6.738281 -6.4375 L 9.914062 -6.4375 C 10.476562 -6.4375 10.949219 -6.890625 10.949219 -7.472656 L 10.949219 -9.828125 C 10.949219 -10.390625 10.476562 -10.863281 9.914062 -10.863281 L 6.738281 -10.863281 C 6.652344 -10.863281 6.585938 -10.929688 6.585938 -10.996094 L 6.585938 -12.417969 C 6.585938 -12.484375 6.652344 -12.59375 6.738281 -12.59375 Z M 6.738281 -12.59375 "/></g></g></g><path stroke-linecap="butt" transform="matrix(0.539987, 0, 0, 0.539987, 397.658037, 298.24088)" fill="none" stroke-linejoin="miter" d="M 79.678833 40.599442 L 79.87415 39.239456 C 79.91032 39.087543 79.91032 38.921161 79.91032 38.725844 C 79.91032 37.235647 78.680545 35.998639 77.197582 35.998639 L 71.837213 35.998639 C 70.513397 36.034809 69.428302 37.04033 69.232985 38.320742 L 67.23641 49.598496 L 67.077263 50.401466 L 66.990455 49.960194 L 65.435152 38.479889 C 65.232601 37.083734 64.11857 35.998639 62.671777 35.998639 L 56.91354 35.998639 C 55.517384 35.998639 54.352715 37.083734 54.200802 38.479889 L 52.479118 50.763165 L 52.276567 49.598496 L 50.308928 38.320742 C 50.113611 37.04033 48.992346 36.034809 47.675764 35.998639 L 42.351565 35.998639 C 40.796262 35.998639 39.559254 37.235647 39.559254 38.725844 C 39.559254 38.921161 39.559254 38.957331 39.595423 39.239456 L 40.152439 42.523677 L 41.874123 53.041864 L 43.877932 65.079185 C 44.160056 66.721295 45.671955 68.001707 47.437043 68.001707 L 54.352715 68.001707 C 56.197377 67.958304 57.709276 66.605552 57.955231 64.79706 L 59.069262 55.638858 C 59.119899 55.233756 59.351386 54.966099 59.756488 54.966099 C 60.118187 54.966099 60.400311 55.197586 60.479885 55.559285 L 61.991784 65.079185 C 62.353482 66.721295 63.836446 68.001707 65.5943 68.001707 L 72.553375 68.001707 C 74.354633 67.958304 75.837596 66.641722 76.112487 64.883868 Z M 111.110418 64.637913 L 104.317723 38.762014 C 104.20198 38.284572 104.071768 37.561176 103.514753 36.917353 C 102.921568 36.316933 102.154767 36.16502 101.590518 36.16502 L 91.115734 36.16502 C 90.515315 36.16502 89.951065 36.360337 89.560431 36.678632 C 89.162563 36.96799 88.706823 37.445432 88.55491 38.154361 L 81.357113 64.601743 C 81.031584 65.882155 81.632004 67.234907 82.832842 67.755752 C 83.151137 67.922134 83.476665 67.958304 83.874533 67.958304 L 89.314476 67.958304 C 90.790205 67.958304 91.397859 67.03959 91.991044 65.520457 L 93.155713 62.402617 L 99.275648 62.402617 L 100.476487 65.520457 C 101.076906 67.03959 101.677325 68.001707 103.153055 68.001707 L 108.592997 68.001707 C 109.034269 68.001707 109.468307 67.885964 109.793836 67.676179 C 110.878931 67.119163 111.392543 65.838751 111.110418 64.637913 Z M 98.11098 53.157608 L 94.392721 53.157608 C 93.994853 53.157608 93.669324 52.803143 93.879109 52.405275 L 94.913566 49.67807 L 95.709303 47.601921 C 95.875684 47.081076 96.591847 47.081076 96.758228 47.601921 L 97.597368 49.67807 L 98.631825 52.405275 C 98.762037 52.803143 98.472678 53.157608 98.11098 53.157608 Z M 138.671831 35.998639 L 115.993345 35.998639 C 114.474212 35.998639 113.1938 37.235647 113.1938 38.798184 L 113.1938 44.281531 C 113.1938 45.800664 114.474212 47.081076 115.993345 47.081076 L 121.512862 47.081076 C 121.679243 47.081076 121.794987 47.240223 121.794987 47.355966 L 121.794987 65.274502 C 121.794987 66.800869 123.039229 68.081281 124.637936 68.081281 L 130.077878 68.081281 C 131.589777 68.081281 132.87019 66.800869 132.87019 65.274502 L 132.87019 47.355966 C 132.87019 47.240223 133.036571 47.081076 133.195718 47.081076 L 138.671831 47.081076 C 140.198198 47.081076 141.471376 45.800664 141.471376 44.281531 L 141.471376 38.798184 C 141.471376 37.235647 140.198198 35.998639 138.671831 35.998639 Z M 159.758844 55.327798 C 159.397145 55.327798 159.115021 55.595455 159.115021 55.957153 C 159.115021 57.317139 157.870778 58.517977 156.474623 58.517977 C 154.99166 58.517977 153.826991 57.317139 153.826991 55.957153 L 153.826991 48.035959 C 153.826991 46.111724 155.874204 44.599825 158.03716 45.844067 C 158.637579 46.205766 159.115021 47.081076 159.115021 47.804472 L 159.115021 47.99979 C 159.115021 48.325318 159.397145 48.643613 159.758844 48.643613 L 168.880876 48.643613 C 169.155766 48.643613 169.437891 48.361488 169.437891 48.035959 L 169.437891 47.319797 C 169.437891 40.765823 163.158808 35.477793 156.474623 35.477793 C 149.913415 35.477793 143.475185 40.765823 143.475185 47.319797 L 143.475185 56.362255 C 143.475185 63.15495 149.913415 68.479149 156.474623 68.479149 C 163.158808 68.479149 169.437891 63.15495 169.437891 56.362255 L 169.437891 55.877579 C 169.437891 55.595455 169.155766 55.327798 168.880876 55.327798 Z M 193.989974 35.882895 L 188.955133 35.882895 C 187.313023 35.882895 185.996441 37.199477 185.996441 38.841588 L 185.996441 45.959811 C 185.996441 46.205766 185.801124 46.437253 185.591339 46.473423 L 182.842431 46.473423 C 182.632646 46.437253 182.437329 46.205766 182.386691 45.995981 L 182.386691 38.841588 C 182.386691 37.199477 181.07011 35.882895 179.427999 35.882895 L 174.393158 35.882895 C 172.751048 35.882895 171.434466 37.199477 171.434466 38.841588 L 171.434466 65.079185 C 171.434466 66.757465 172.751048 68.081281 174.393158 68.081281 L 179.427999 68.081281 C 181.07011 68.081281 182.386691 66.757465 182.386691 65.079185 L 182.386691 57.997131 C 182.437329 57.715007 182.553073 57.563093 182.842431 57.48352 L 185.591339 57.48352 C 185.801124 57.563093 185.996441 57.715007 185.996441 57.997131 L 185.996441 65.079185 C 185.996441 66.757465 187.313023 68.081281 188.955133 68.081281 L 193.989974 68.081281 C 195.668254 68.081281 196.999304 66.757465 196.999304 65.079185 L 196.999304 38.841588 C 196.999304 37.199477 195.668254 35.882895 193.989974 35.882895 Z M 252.715315 40.599442 L 252.910633 39.239456 C 252.946802 39.087543 252.946802 38.921161 252.946802 38.725844 C 252.946802 37.235647 251.717028 35.998639 250.234065 35.998639 L 244.873696 35.998639 C 243.557114 36.034809 242.472019 37.04033 242.276701 38.320742 L 240.272893 49.598496 L 240.120979 50.401466 L 240.026938 49.960194 L 238.478869 38.479889 C 238.269084 37.083734 237.162287 35.998639 235.715494 35.998639 L 229.950022 35.998639 C 228.553867 35.998639 227.396432 37.083734 227.237285 38.479889 L 225.515601 50.763165 L 225.31305 49.598496 L 223.352645 38.320742 C 223.157328 37.04033 222.028829 36.034809 220.712247 35.998639 L 215.388047 35.998639 C 213.839979 35.998639 212.595736 37.235647 212.595736 38.725844 C 212.595736 38.921161 212.595736 38.957331 212.63914 39.239456 L 213.196155 42.523677 L 214.910606 53.041864 L 216.914414 65.079185 C 217.196539 66.721295 218.708438 68.001707 220.48076 68.001707 L 227.396432 68.001707 C 229.241094 67.958304 230.752993 66.605552 230.998947 64.79706 L 232.112978 55.638858 C 232.156382 55.233756 232.395103 54.966099 232.792971 54.966099 C 233.15467 54.966099 233.436794 55.197586 233.516368 55.559285 L 235.028267 65.079185 C 235.389965 66.721295 236.872928 68.001707 238.630782 68.001707 L 245.597092 68.001707 C 247.391116 67.958304 248.881313 66.641722 249.14897 64.883868 Z M 257.79356 68.037877 L 262.756061 68.037877 C 264.434341 68.037877 265.63518 66.685125 265.63518 65.158758 L 265.63518 38.877758 C 265.63518 37.199477 264.434341 35.998639 262.756061 35.998639 L 257.79356 35.998639 C 256.231023 35.998639 254.950611 37.199477 254.950611 38.877758 L 254.950611 65.158758 C 254.950611 66.685125 256.231023 68.037877 257.79356 68.037877 Z M 293.753608 35.998639 L 271.075123 35.998639 C 269.55599 35.998639 268.275578 37.235647 268.275578 38.798184 L 268.275578 44.281531 C 268.275578 45.800664 269.55599 47.081076 271.075123 47.081076 L 276.594639 47.081076 C 276.761021 47.081076 276.876764 47.240223 276.876764 47.355966 L 276.876764 65.274502 C 276.876764 66.800869 278.113772 68.081281 279.719713 68.081281 L 285.159656 68.081281 C 286.671555 68.081281 287.951967 66.800869 287.951967 65.274502 L 287.951967 47.355966 C 287.951967 47.240223 288.118348 47.081076 288.270262 47.081076 L 293.753608 47.081076 C 295.272741 47.081076 296.553153 45.800664 296.553153 44.281531 L 296.553153 38.798184 C 296.553153 37.235647 295.272741 35.998639 293.753608 35.998639 Z M 321.749059 35.882895 L 316.714219 35.882895 C 315.072108 35.882895 313.755526 37.199477 313.755526 38.841588 L 313.755526 45.959811 C 313.755526 46.205766 313.560209 46.437253 313.350424 46.473423 L 310.601517 46.473423 C 310.391732 46.437253 310.196415 46.205766 310.153011 45.995981 L 310.153011 38.841588 C 310.153011 37.199477 308.829195 35.882895 307.194318 35.882895 L 302.152244 35.882895 C 300.510133 35.882895 299.193551 37.199477 299.193551 38.841588 L 299.193551 65.079185 C 299.193551 66.757465 300.510133 68.081281 302.152244 68.081281 L 307.194318 68.081281 C 308.829195 68.081281 310.153011 66.757465 310.153011 65.079185 L 310.153011 57.997131 C 310.196415 57.715007 310.319392 57.563093 310.601517 57.48352 L 313.350424 57.48352 C 313.560209 57.563093 313.755526 57.715007 313.755526 57.997131 L 313.755526 65.079185 C 313.755526 66.757465 315.072108 68.081281 316.714219 68.081281 L 321.749059 68.081281 C 323.434574 68.081281 324.758389 66.757465 324.758389 65.079185 L 324.758389 38.841588 C 324.758389 37.199477 323.434574 35.882895 321.749059 35.882895 Z M 380.590144 65.238332 C 380.590144 64.963441 380.590144 65.122589 376.792312 39.203286 C 376.474017 37.481602 374.998288 36.16502 373.189796 36.114382 L 366.274124 36.114382 C 364.51627 36.114382 363.033307 37.358625 362.751182 39.044139 L 361.15971 48.520635 C 361.109072 48.882333 360.834181 49.121054 360.472483 49.121054 C 360.074615 49.121054 359.75632 48.759356 359.75632 48.397658 L 359.75632 48.441061 L 358.678459 39.28286 C 358.432504 37.525006 356.913371 36.16502 355.075944 36.114382 L 348.153038 36.114382 C 346.395184 36.114382 344.955624 37.358625 344.63733 39.044139 L 342.669691 50.994652 L 340.911837 61.476669 L 340.398225 64.76089 C 340.354822 64.963441 340.354822 65.122589 340.354822 65.238332 C 340.354822 66.757465 341.599064 68.001707 343.074793 68.001707 L 348.435162 68.001707 C 349.751744 67.958304 350.836839 67.00342 351.032156 65.723008 L 353.035965 54.43802 L 353.238516 53.280585 L 354.9602 65.556627 C 355.075944 66.916612 356.240612 68.001707 357.636768 68.001707 L 363.395005 68.001707 C 364.791161 68.001707 365.95583 66.916612 366.107743 65.556627 L 367.67028 54.083555 L 367.749853 53.685687 L 367.952404 54.43802 L 369.869406 65.723008 C 370.11536 67.00342 371.200455 67.958304 372.517037 68.001707 L 377.841237 68.001707 C 379.389306 68.001707 380.590144 66.757465 380.590144 65.238332 Z M 393.755964 44.679399 L 401.872474 44.679399 C 403.029909 44.679399 403.99926 43.724515 403.99926 42.596016 L 403.99926 38.118191 C 403.99926 36.96799 403.029909 36.034809 401.872474 36.034809 L 385.516476 36.034809 C 383.874365 36.034809 382.593953 37.315221 382.593953 38.241168 L 382.593953 64.276215 C 382.593953 66.641722 383.874365 67.922134 385.516476 67.922134 L 401.872474 67.922134 C 403.029909 67.922134 403.99926 67.00342 403.99926 65.838751 L 403.99926 61.360926 C 403.99926 60.196257 403.029909 59.19797 401.872474 59.19797 L 393.755964 59.19797 C 393.596816 59.19797 393.473839 59.082226 393.473839 58.915845 L 393.473839 56.362255 C 393.473839 56.203108 393.596816 56.072896 393.755964 56.072896 L 399.637178 56.072896 C 400.67887 56.072896 401.561414 55.233756 401.561414 54.163129 L 401.561414 49.793813 C 401.561414 48.759356 400.67887 47.884046 399.637178 47.884046 L 393.755964 47.884046 C 393.596816 47.884046 393.473839 47.753835 393.473839 47.638091 L 393.473839 45.004927 C 393.473839 44.88195 393.596816 44.679399 393.755964 44.679399 Z M 393.755964 44.679399 " stroke="#0f172a" stroke-width="0.65" stroke-opacity="1" stroke-miterlimit="4"/></svg>